<svg xmlns="http://www.w3.org/2000/svg" xmlns:xlink="http://www.w3.org/1999/xlink" width="3000" zoomAndPan="magnify" viewBox="0 0 2250 2250.000011" height="3000" preserveAspectRatio="xMidYMid meet" version="1.0"><defs><clipPath id="5992fae01b"><path d="M 889 12 L 1489 12 L 1489 2202 L 889 2202 Z M 889 12 " clip-rule="nonzero"/></clipPath><clipPath id="879ec55a13"><path d="M 1590.808594 46.898438 L 1424.785156 2249.167969 L 802.828125 2202.277344 L 968.851562 0.0117188 Z M 1590.808594 46.898438 " clip-rule="nonzero"/></clipPath><clipPath id="3d275d2772"><path d="M 968.722656 0 L 802.699219 2202.269531 L 1424.65625 2249.15625 L 1590.679688 46.890625 Z M 968.722656 0 " clip-rule="nonzero"/></clipPath><clipPath id="2380614475"><path d="M 1225 356 L 1231 356 L 1231 364 L 1225 364 Z M 1225 356 " clip-rule="nonzero"/></clipPath><clipPath id="8408947a06"><path d="M 1590.808594 46.898438 L 1424.785156 2249.167969 L 802.828125 2202.277344 L 968.851562 0.0117188 Z M 1590.808594 46.898438 " clip-rule="nonzero"/></clipPath><clipPath id="7af2a86d74"><path d="M 968.722656 0 L 802.699219 2202.269531 L 1424.65625 2249.15625 L 1590.679688 46.890625 Z M 968.722656 0 " clip-rule="nonzero"/></clipPath></defs><g clip-path="url(#5992fae01b)"><g clip-path="url(#879ec55a13)"><g clip-path="url(#3d275d2772)"><path fill="#acadf4" d="M 984.1875 36.308594 C 985.820312 35.28125 987.542969 35.25 989.28125 36.117188 C 994.667969 32.09375 991.519531 21.6875 1000.941406 20.675781 C 1016.8125 6.949219 1031.46875 13.714844 1045.722656 23.644531 C 1085.589844 51.578125 1120.09375 85.421875 1152.546875 121.40625 C 1268.660156 250.375 1352.488281 397.65625 1411.0625 561.316406 C 1513.390625 847.015625 1508.921875 1133.601562 1426.710938 1421.546875 C 1388.613281 1555.042969 1327.921875 1679.371094 1261.457031 1800.890625 C 1222.378906 1872.320312 1179.152344 1941.140625 1137.566406 2011.066406 C 1134.964844 2012.921875 1132.371094 2014.695312 1129.773438 2016.550781 C 1129.339844 2020.125 1127.816406 2024.027344 1128.898438 2027.0625 C 1128.898438 2027.0625 1128.898438 2027.0625 1128.976562 2027.148438 C 1129.863281 2029.511719 1133.238281 2028.207031 1134.742188 2025.699219 C 1164.335938 2013.742188 1190.433594 1995.949219 1215.570312 1976.769531 C 1232.792969 1963.632812 1250.460938 1952.175781 1271.40625 1946.207031 C 1308.234375 1917.660156 1345.242188 1919.382812 1375.269531 1949.527344 C 1335.40625 2033.527344 1262.875 2081.113281 1185.164062 2123.472656 C 1156.265625 2139.253906 1128.535156 2156.925781 1100.511719 2174.164062 C 1033.453125 2215.519531 1040.828125 2205.746094 984.144531 2175.804688 C 971.449219 2169.109375 960.527344 2159.59375 950.667969 2149.007812 C 947.023438 2145.125 944.039062 2141.210938 944.464844 2135.585938 C 930.425781 2127.148438 931.296875 2113.4375 932.792969 2100.101562 C 937.253906 2060.503906 942.199219 2021.023438 946.984375 1981.449219 C 943.046875 1972.789062 945.085938 1964.25 947.53125 1955.742188 C 943.253906 1947.21875 945.460938 1938.609375 947.253906 1930.054688 C 943.246094 1924.503906 945.367188 1918.101562 945 1912.089844 C 939.75 1830.59375 925.429688 1750.875 897.542969 1673.824219 C 895.441406 1668.007812 893.839844 1662.0625 891.988281 1656.183594 C 889.726562 1649.207031 887.125 1641.304688 893.890625 1636.402344 C 899.007812 1632.6875 907.640625 1634.484375 911.367188 1638.375 C 927.945312 1655.53125 952.300781 1659.746094 969.765625 1674.921875 C 977.539062 1681.65625 981.914062 1691.007812 986.195312 1700.597656 C 1019.570312 1774.371094 1038.96875 1852.015625 1050.492188 1931.851562 C 1051.511719 1938.980469 1051.441406 1946.4375 1053.890625 1953.097656 C 1056.75 1960.859375 1063.265625 1959.21875 1069.175781 1955.890625 C 1068.8125 1947.664062 1072.507812 1942.121094 1079.882812 1938.902344 C 1081.023438 1931.363281 1082.71875 1924.113281 1090.914062 1920.875 C 1090.160156 1918.933594 1090.824219 1917.753906 1092.820312 1917.328125 C 1093.695312 1910.097656 1095.667969 1903.519531 1103.054688 1900.140625 C 1104.726562 1895.347656 1105.765625 1890.261719 1108.230469 1885.855469 C 1134.996094 1837.441406 1162.546875 1789.496094 1188.765625 1740.796875 C 1212.589844 1696.589844 1234.996094 1651.703125 1257.949219 1607.101562 C 1262.582031 1594.578125 1266.734375 1581.933594 1271.835938 1569.691406 C 1320.765625 1450.210938 1354.59375 1326.644531 1369.84375 1198.3125 C 1375.265625 1152.472656 1379.304688 1106.527344 1383.914062 1060.628906 C 1379.679688 1051.535156 1382.3125 1042.710938 1384.789062 1033.796875 C 1380.515625 1025.191406 1382.875 1016.761719 1385.15625 1008.242188 C 1380.503906 1000.34375 1383.320312 992.359375 1384.746094 984.347656 C 1381.183594 979.402344 1381.8125 974.285156 1384.089844 969.128906 C 1382.917969 967.234375 1382.972656 965.433594 1384.335938 963.652344 C 1380.492188 958.113281 1382.445312 951.78125 1381.910156 945.839844 C 1379.125 916.4375 1381.613281 886.691406 1375.199219 857.589844 C 1377.753906 855.242188 1379.609375 846.933594 1383.15625 857.535156 C 1385.574219 864.605469 1387.582031 865.167969 1389.433594 863.421875 C 1391.023438 861.898438 1392.5 858.648438 1393.90625 856.296875 C 1382.191406 763.734375 1359.46875 673.707031 1330.8125 585.117188 C 1327.398438 577.148438 1323.988281 569.101562 1320.570312 561.136719 C 1300.140625 513.511719 1279.71875 465.804688 1259.371094 418.1875 C 1257.484375 417.140625 1256.277344 415.738281 1255.664062 414.054688 C 1255.261719 412.875 1255.109375 411.632812 1255.214844 410.246094 C 1252.148438 408.539062 1250.871094 405.902344 1251.210938 402.484375 C 1248.054688 400.851562 1246.777344 398.214844 1247.203125 394.71875 C 1243.960938 393.164062 1242.683594 390.523438 1243.117188 386.949219 C 1239.875 385.390625 1238.425781 382.824219 1238.941406 379.253906 C 1235.609375 377.773438 1234.246094 375.210938 1234.761719 371.640625 L 1234.6875 371.554688 C 1231.429688 370.160156 1229.984375 367.589844 1230.492188 364.101562 L 1230.425781 363.933594 C 1228.878906 361.601562 1227.425781 359.117188 1226.144531 356.558594 L 1226 356.300781 C 1222.742188 354.910156 1221.285156 352.503906 1221.71875 348.925781 L 1221.574219 348.671875 C 1218.316406 347.277344 1216.859375 344.871094 1217.292969 341.296875 L 1217.148438 341.039062 C 1217.148438 341.039062 1217.074219 340.949219 1217.074219 340.949219 C 1217.074219 340.949219 1217.148438 341.039062 1217.148438 341.039062 C 1213.804688 339.71875 1212.351562 337.234375 1212.785156 333.65625 L 1212.714844 333.488281 C 1209.371094 332.171875 1207.921875 329.683594 1208.355469 326.105469 L 1208.277344 326.019531 C 1204.941406 324.621094 1203.40625 322.125 1203.761719 318.542969 C 1188.460938 296.398438 1173.152344 274.335938 1157.855469 252.1875 C 1153.5 238.167969 1143.203125 227.960938 1134.621094 216.734375 C 1132.960938 217.019531 1131.601562 217.65625 1130.390625 218.464844 C 1128.496094 219.71875 1127.136719 221.417969 1126.21875 223.808594 C 1118.851562 216.039062 1110.871094 208.792969 1107.496094 198.125 C 1106.765625 194.789062 1105.605469 191.667969 1103.175781 189.109375 C 1104.589844 192.085938 1106.085938 195.066406 1107.496094 198.125 C 1104.617188 196.105469 1102.160156 193.871094 1103.019531 190.078125 C 1097.796875 188.703125 1094.867188 185.121094 1093.28125 180.078125 C 1089.902344 179.25 1087.917969 177.296875 1088.03125 173.617188 C 1084.878906 171.902344 1082.5 169.753906 1082.382812 165.890625 C 1080.707031 165.273438 1079.46875 164.277344 1078.871094 162.429688 C 1070.328125 156.125 1063.535156 148.398438 1058.585938 139.003906 C 1052.796875 134.222656 1046.835938 129.589844 1044.027344 122.246094 C 1039.234375 120.570312 1036.925781 116.378906 1034.351562 112.496094 C 1011.5 93.71875 992.238281 70.863281 964.605469 55.742188 C 973.617188 49.285156 973.046875 37.269531 984.1875 36.308594 Z M 1098.773438 1918.84375 C 1098.78125 1918.761719 1098.78125 1918.761719 1098.785156 1918.679688 C 1098.867188 1918.6875 1098.863281 1918.769531 1098.863281 1918.769531 C 1098.867188 1918.6875 1098.792969 1918.597656 1098.792969 1918.597656 C 1098.792969 1918.597656 1098.785156 1918.679688 1098.785156 1918.679688 C 1098.703125 1918.675781 1098.625 1918.667969 1098.546875 1918.582031 C 1098.617188 1918.75 1098.699219 1918.757812 1098.773438 1918.84375 Z M 1228.261719 326.296875 C 1228.714844 326.824219 1229.164062 327.347656 1229.617188 327.875 C 1229.546875 327.707031 1229.480469 327.535156 1229.410156 327.367188 C 1229.121094 326.851562 1228.832031 326.339844 1228.460938 325.820312 C 1228.453125 325.902344 1228.359375 326.058594 1228.261719 326.296875 Z M 1259.40625 417.699219 C 1259.488281 417.703125 1259.496094 417.621094 1259.578125 417.628906 C 1259.753906 417.476562 1260.003906 417.414062 1260.179688 417.265625 L 1260.792969 416.738281 L 1259.496094 417.621094 C 1259.414062 417.617188 1259.421875 417.535156 1259.339844 417.527344 C 1259.421875 417.535156 1259.414062 417.617188 1259.40625 417.699219 Z M 1229.628906 323.367188 C 1229.242188 324.15625 1228.855469 324.945312 1228.554688 325.664062 C 1228.84375 326.175781 1229.132812 326.691406 1229.421875 327.203125 C 1228.9375 326.019531 1228.953125 324.707031 1229.628906 323.367188 Z M 1231.546875 330.5625 C 1231.910156 331.164062 1232.273438 331.765625 1232.644531 332.285156 C 1232.726562 332.292969 1232.722656 332.371094 1232.804688 332.378906 C 1232.355469 331.769531 1231.910156 331.164062 1231.546875 330.5625 Z M 1036.566406 55.917969 C 1036.574219 55.835938 1036.496094 55.75 1036.503906 55.667969 C 1036.503906 55.667969 1036.429688 55.578125 1036.429688 55.578125 C 1036.347656 55.574219 1036.273438 55.484375 1036.191406 55.480469 C 1036.257812 55.648438 1036.417969 55.742188 1036.566406 55.917969 Z M 1046.671875 64.304688 C 1046.835938 64.320312 1047 64.332031 1047.070312 64.5 C 1046.90625 64.488281 1046.753906 64.3125 1046.671875 64.304688 Z M 1103.003906 183.765625 C 1103.292969 183.210938 1103.660156 182.667969 1104.191406 182.132812 C 1103.792969 182.019531 1103.390625 181.90625 1102.988281 181.796875 C 1103.019531 182.453125 1102.972656 183.105469 1103.003906 183.765625 Z M 1086.089844 167.8125 C 1085.503906 166.867188 1084.578125 166.140625 1083.382812 165.640625 C 1083.382812 165.640625 1083.382812 165.640625 1083.378906 165.722656 C 1084.484375 166.296875 1085.417969 166.941406 1086.089844 167.8125 Z M 1086.089844 167.8125 " fill-opacity="1" fill-rule="nonzero"/></g></g></g><g clip-path="url(#2380614475)"><g clip-path="url(#8408947a06)"><g clip-path="url(#7af2a86d74)"><path fill="#acadf4" d="M 1226.015625 356.058594 C 1227.46875 358.546875 1228.839844 361.027344 1230.296875 363.433594 C 1226.960938 362.03125 1225.589844 359.550781 1226.015625 356.058594 Z M 1226.015625 356.058594 " fill-opacity="1" fill-rule="nonzero"/></g></g></g></svg>