<svg xmlns="http://www.w3.org/2000/svg" xmlns:xlink="http://www.w3.org/1999/xlink" width="3000" zoomAndPan="magnify" viewBox="0 0 2250 2250.000011" height="3000" preserveAspectRatio="xMidYMid meet" version="1.0"><path fill="#000000" d="M 1235.34375 136.046875 L 1168.355469 136.046875 L 1140.976562 74.324219 C 1138.117188 67.878906 1131.710938 63.722656 1124.660156 63.722656 C 1117.609375 63.722656 1111.203125 67.878906 1108.347656 74.34375 L 1081 136.046875 L 1013.816406 136.046875 C 1006.75 136.046875 1000.339844 140.222656 997.484375 146.683594 C 994.628906 153.164062 995.859375 160.714844 1000.644531 165.925781 L 1046.339844 215.976562 L 1012.476562 306.257812 C 1009.871094 313.21875 1011.855469 321.070312 1017.441406 325.960938 C 1023.046875 330.871094 1031.078125 331.746094 1037.644531 328.246094 L 1124.679688 281.480469 L 1211.835938 328.246094 C 1214.476562 329.675781 1217.386719 330.371094 1220.277344 330.371094 C 1224.507812 330.371094 1228.703125 328.871094 1232.023438 325.945312 C 1237.628906 321.054688 1239.609375 313.199219 1236.96875 306.238281 L 1203.019531 215.941406 L 1248.570312 165.890625 C 1253.335938 160.660156 1254.550781 153.128906 1251.710938 146.648438 C 1248.820312 140.207031 1242.410156 136.046875 1235.34375 136.046875 Z M 1165.75 218.296875 L 1186.828125 274.324219 L 1133.101562 245.5 C 1127.820312 242.660156 1121.5 242.679688 1116.21875 245.5 L 1062.582031 274.308594 L 1083.609375 218.261719 C 1085.964844 211.976562 1084.605469 204.910156 1080.074219 199.964844 L 1054.300781 171.726562 L 1092.621094 171.726562 C 1099.691406 171.726562 1106.078125 167.570312 1108.9375 161.105469 L 1124.695312 125.585938 L 1140.457031 161.125 C 1143.3125 167.570312 1149.722656 171.726562 1156.773438 171.726562 L 1194.988281 171.726562 L 1169.285156 199.984375 C 1164.730469 204.945312 1163.375 212.011719 1165.75 218.296875 Z M 1165.75 218.296875 " fill-opacity="1" fill-rule="nonzero"/><path fill="#000000" d="M 1700.207031 136.046875 L 1633.203125 136.046875 L 1605.820312 74.324219 C 1602.964844 67.878906 1596.558594 63.722656 1589.507812 63.722656 C 1582.457031 63.722656 1576.050781 67.878906 1573.195312 74.34375 L 1545.867188 136.046875 L 1478.683594 136.046875 C 1471.613281 136.046875 1465.207031 140.222656 1462.351562 146.683594 C 1459.492188 153.164062 1460.726562 160.714844 1465.507812 165.925781 L 1511.203125 215.976562 L 1477.34375 306.257812 C 1474.738281 313.21875 1476.71875 321.070312 1482.304688 325.960938 C 1487.910156 330.871094 1495.960938 331.746094 1502.511719 328.246094 L 1589.527344 281.480469 L 1676.703125 328.246094 C 1679.34375 329.675781 1682.253906 330.371094 1685.144531 330.371094 C 1689.375 330.371094 1693.585938 328.871094 1696.90625 325.945312 C 1702.492188 321.054688 1704.472656 313.183594 1701.832031 306.238281 L 1667.867188 215.941406 L 1713.433594 165.890625 C 1718.199219 160.660156 1719.433594 153.128906 1716.578125 146.648438 C 1713.71875 140.171875 1707.257812 136.046875 1700.207031 136.046875 Z M 1630.597656 218.296875 L 1651.675781 274.324219 L 1597.949219 245.5 C 1595.328125 244.089844 1592.398438 243.375 1589.507812 243.375 C 1586.597656 243.375 1583.707031 244.089844 1581.046875 245.5 L 1527.429688 274.308594 L 1548.453125 218.261719 C 1550.8125 211.976562 1549.453125 204.910156 1544.921875 199.964844 L 1519.144531 171.726562 L 1557.46875 171.726562 C 1564.535156 171.726562 1570.925781 167.570312 1573.78125 161.105469 L 1589.527344 125.585938 L 1605.285156 161.105469 C 1608.140625 167.550781 1614.550781 171.710938 1621.601562 171.710938 L 1659.832031 171.710938 L 1634.113281 199.964844 C 1629.578125 204.945312 1628.222656 212.011719 1630.597656 218.296875 Z M 1630.597656 218.296875 " fill-opacity="1" fill-rule="nonzero"/><path fill="#000000" d="M 770.675781 136.046875 L 703.492188 136.046875 L 676.164062 74.34375 C 673.308594 67.898438 666.898438 63.722656 659.847656 63.722656 C 652.800781 63.722656 646.390625 67.878906 643.535156 74.324219 L 616.15625 136.046875 L 549.148438 136.046875 C 542.082031 136.046875 535.671875 140.207031 532.816406 146.683594 C 529.960938 153.164062 531.191406 160.695312 535.957031 165.925781 L 581.527344 215.976562 L 547.558594 306.273438 C 544.9375 313.234375 546.898438 321.089844 552.488281 325.980469 C 555.824219 328.890625 560.019531 330.40625 564.25 330.40625 C 567.140625 330.40625 570.03125 329.710938 572.691406 328.28125 L 659.867188 281.519531 L 746.882812 328.28125 C 753.433594 331.78125 761.445312 330.90625 767.085938 326 C 772.675781 321.105469 774.671875 313.253906 772.050781 306.292969 L 738.171875 215.976562 L 783.867188 165.925781 C 788.648438 160.714844 789.882812 153.164062 787.023438 146.683594 C 784.152344 140.207031 777.742188 136.046875 770.675781 136.046875 Z M 700.902344 218.277344 L 721.929688 274.324219 L 668.308594 245.515625 C 663.027344 242.679688 656.707031 242.679688 651.425781 245.515625 L 597.699219 274.34375 L 618.777344 218.3125 C 621.152344 212.03125 619.796875 204.960938 615.28125 200.019531 L 589.523438 171.746094 L 627.757812 171.746094 C 634.824219 171.746094 641.214844 167.585938 644.070312 161.144531 L 659.832031 125.621094 L 675.574219 161.144531 C 678.429688 167.585938 684.839844 171.761719 691.890625 171.761719 L 730.210938 171.761719 L 704.4375 200 C 699.902344 204.925781 698.546875 211.996094 700.902344 218.277344 Z M 700.902344 218.277344 " fill-opacity="1" fill-rule="nonzero"/><path fill="#000000" d="M 2122.128906 2086.324219 L 2031.007812 2086.324219 L 2031.007812 376.242188 C 2031.007812 366.390625 2023.03125 358.394531 2013.160156 358.394531 L 1875.898438 358.394531 L 1875.898438 17.847656 C 1875.898438 7.996094 1867.917969 0 1858.050781 0 L 391.128906 0 C 381.257812 0 373.28125 7.996094 373.28125 17.847656 L 373.28125 358.394531 L 236.019531 358.394531 C 226.148438 358.394531 218.171875 366.390625 218.171875 376.242188 L 218.171875 2086.324219 L 127.230469 2086.324219 C 117.359375 2086.324219 109.378906 2094.300781 109.378906 2104.171875 L 109.378906 2231.152344 C 109.378906 2241.023438 117.359375 2249 127.230469 2249 L 2122.128906 2249 C 2132 2249 2139.976562 2241.023438 2139.976562 2231.152344 L 2139.976562 2104.171875 C 2139.976562 2094.300781 2131.980469 2086.324219 2122.128906 2086.324219 Z M 408.980469 35.699219 L 1840.183594 35.699219 L 1840.183594 358.394531 L 408.980469 358.394531 Z M 253.871094 394.09375 L 1995.292969 394.09375 L 1995.292969 2086.324219 L 1474.558594 2086.324219 L 1474.558594 1726.464844 L 1484.199219 1726.464844 C 1494.066406 1726.464844 1502.046875 1718.484375 1502.046875 1708.617188 C 1502.046875 1535.300781 1332.730469 1394.308594 1124.589844 1394.308594 C 916.449219 1394.308594 747.113281 1535.300781 747.113281 1708.617188 C 747.113281 1718.484375 755.09375 1726.464844 764.964844 1726.464844 L 774.796875 1726.464844 L 774.796875 2086.324219 L 253.871094 2086.324219 Z M 1283.160156 2086.324219 L 1283.160156 1805.285156 C 1283.160156 1795.417969 1275.183594 1787.4375 1265.3125 1787.4375 L 983.847656 1787.4375 C 973.976562 1787.4375 966 1795.417969 966 1805.285156 L 966 2086.324219 L 900.546875 2086.324219 L 900.546875 1726.464844 L 1348.792969 1726.464844 L 1348.792969 2086.324219 Z M 1247.464844 2086.324219 L 1001.699219 2086.324219 L 1001.699219 1823.136719 L 1247.464844 1823.136719 Z M 783.507812 1690.765625 C 794.824219 1545.402344 943.492188 1430.007812 1124.589844 1430.007812 C 1305.6875 1430.007812 1454.351562 1545.421875 1465.652344 1690.765625 Z M 810.480469 1726.464844 L 864.847656 1726.464844 L 864.847656 2086.324219 L 810.480469 2086.324219 Z M 1384.492188 1726.464844 L 1438.859375 1726.464844 L 1438.859375 2086.324219 L 1384.492188 2086.324219 Z M 2104.277344 2213.300781 L 145.078125 2213.300781 L 145.078125 2122.019531 L 2104.296875 2122.019531 L 2104.296875 2213.300781 Z M 2104.277344 2213.300781 " fill-opacity="1" fill-rule="nonzero"/><path fill="#000000" d="M 1025.828125 774.210938 L 1223.332031 774.210938 C 1233.203125 774.210938 1241.179688 766.214844 1241.179688 756.359375 L 1241.179688 558.875 C 1241.179688 549.023438 1233.203125 541.027344 1223.332031 541.027344 L 1025.828125 541.027344 C 1015.960938 541.027344 1007.980469 549.023438 1007.980469 558.875 L 1007.980469 756.378906 C 1007.980469 766.230469 1015.960938 774.210938 1025.828125 774.210938 Z M 1043.679688 576.726562 L 1205.480469 576.726562 L 1205.480469 738.527344 L 1043.679688 738.527344 Z M 1043.679688 576.726562 " fill-opacity="1" fill-rule="nonzero"/><path fill="#000000" d="M 1025.828125 1054.101562 L 1223.332031 1054.101562 C 1233.203125 1054.101562 1241.179688 1046.105469 1241.179688 1036.253906 L 1241.179688 838.769531 C 1241.179688 828.917969 1233.203125 820.921875 1223.332031 820.921875 L 1025.828125 820.921875 C 1015.960938 820.921875 1007.980469 828.917969 1007.980469 838.769531 L 1007.980469 1036.253906 C 1007.980469 1046.105469 1015.960938 1054.101562 1025.828125 1054.101562 Z M 1043.679688 856.621094 L 1205.480469 856.621094 L 1205.480469 1018.40625 L 1043.679688 1018.40625 Z M 1043.679688 856.621094 " fill-opacity="1" fill-rule="nonzero"/><path fill="#000000" d="M 1025.828125 1333.996094 L 1223.332031 1333.996094 C 1233.203125 1333.996094 1241.179688 1326.019531 1241.179688 1316.148438 L 1241.179688 1118.644531 C 1241.179688 1108.792969 1233.203125 1100.796875 1223.332031 1100.796875 L 1025.828125 1100.796875 C 1015.960938 1100.796875 1007.980469 1108.792969 1007.980469 1118.644531 L 1007.980469 1316.148438 C 1007.980469 1326.019531 1015.960938 1333.996094 1025.828125 1333.996094 Z M 1043.679688 1136.496094 L 1205.480469 1136.496094 L 1205.480469 1298.296875 L 1043.679688 1298.296875 Z M 1043.679688 1136.496094 " fill-opacity="1" fill-rule="nonzero"/><path fill="#000000" d="M 1347.1875 774.210938 L 1544.6875 774.210938 C 1554.558594 774.210938 1562.539062 766.214844 1562.539062 756.359375 L 1562.539062 558.875 C 1562.539062 549.023438 1554.558594 541.027344 1544.6875 541.027344 L 1347.1875 541.027344 C 1337.316406 541.027344 1329.335938 549.023438 1329.335938 558.875 L 1329.335938 756.378906 C 1329.335938 766.230469 1337.316406 774.210938 1347.1875 774.210938 Z M 1365.035156 576.726562 L 1526.839844 576.726562 L 1526.839844 738.527344 L 1365.035156 738.527344 Z M 1365.035156 576.726562 " fill-opacity="1" fill-rule="nonzero"/><path fill="#000000" d="M 1347.1875 1054.101562 L 1544.6875 1054.101562 C 1554.558594 1054.101562 1562.539062 1046.105469 1562.539062 1036.253906 L 1562.539062 838.769531 C 1562.539062 828.917969 1554.558594 820.921875 1544.6875 820.921875 L 1347.1875 820.921875 C 1337.316406 820.921875 1329.335938 828.917969 1329.335938 838.769531 L 1329.335938 1036.253906 C 1329.335938 1046.105469 1337.316406 1054.101562 1347.1875 1054.101562 Z M 1365.035156 856.621094 L 1526.839844 856.621094 L 1526.839844 1018.40625 L 1365.035156 1018.40625 Z M 1365.035156 856.621094 " fill-opacity="1" fill-rule="nonzero"/><path fill="#000000" d="M 1347.1875 1333.996094 L 1544.6875 1333.996094 C 1554.558594 1333.996094 1562.539062 1326.019531 1562.539062 1316.148438 L 1562.539062 1118.644531 C 1562.539062 1108.792969 1554.558594 1100.796875 1544.6875 1100.796875 L 1347.1875 1100.796875 C 1337.316406 1100.796875 1329.335938 1108.792969 1329.335938 1118.644531 L 1329.335938 1316.148438 C 1329.335938 1326.019531 1337.316406 1333.996094 1347.1875 1333.996094 Z M 1365.035156 1136.496094 L 1526.839844 1136.496094 L 1526.839844 1298.296875 L 1365.035156 1298.296875 Z M 1365.035156 1136.496094 " fill-opacity="1" fill-rule="nonzero"/><path fill="#000000" d="M 1668.542969 774.210938 L 1866.046875 774.210938 C 1875.917969 774.210938 1883.894531 766.214844 1883.894531 756.359375 L 1883.894531 558.875 C 1883.894531 549.023438 1875.917969 541.027344 1866.046875 541.027344 L 1668.542969 541.027344 C 1658.671875 541.027344 1650.695312 549.023438 1650.695312 558.875 L 1650.695312 756.378906 C 1650.695312 766.230469 1658.671875 774.210938 1668.542969 774.210938 Z M 1686.394531 576.726562 L 1848.195312 576.726562 L 1848.195312 738.527344 L 1686.394531 738.527344 Z M 1686.394531 576.726562 " fill-opacity="1" fill-rule="nonzero"/><path fill="#000000" d="M 1668.542969 1054.101562 L 1866.046875 1054.101562 C 1875.917969 1054.101562 1883.894531 1046.105469 1883.894531 1036.253906 L 1883.894531 838.769531 C 1883.894531 828.917969 1875.917969 820.921875 1866.046875 820.921875 L 1668.542969 820.921875 C 1658.671875 820.921875 1650.695312 828.917969 1650.695312 838.769531 L 1650.695312 1036.253906 C 1650.695312 1046.105469 1658.671875 1054.101562 1668.542969 1054.101562 Z M 1686.394531 856.621094 L 1848.195312 856.621094 L 1848.195312 1018.40625 L 1686.394531 1018.40625 Z M 1686.394531 856.621094 " fill-opacity="1" fill-rule="nonzero"/><path fill="#000000" d="M 1668.542969 1333.996094 L 1866.046875 1333.996094 C 1875.917969 1333.996094 1883.894531 1326.019531 1883.894531 1316.148438 L 1883.894531 1118.644531 C 1883.894531 1108.792969 1875.917969 1100.796875 1866.046875 1100.796875 L 1668.542969 1100.796875 C 1658.671875 1100.796875 1650.695312 1108.792969 1650.695312 1118.644531 L 1650.695312 1316.148438 C 1650.695312 1326.019531 1658.671875 1333.996094 1668.542969 1333.996094 Z M 1686.394531 1136.496094 L 1848.195312 1136.496094 L 1848.195312 1298.296875 L 1686.394531 1298.296875 Z M 1686.394531 1136.496094 " fill-opacity="1" fill-rule="nonzero"/><path fill="#000000" d="M 1550.882812 1479.324219 L 1550.882812 1937.871094 C 1550.882812 1947.742188 1558.859375 1955.71875 1568.730469 1955.71875 L 1866.046875 1955.71875 C 1875.917969 1955.71875 1883.894531 1947.742188 1883.894531 1937.871094 L 1883.894531 1479.324219 C 1883.894531 1469.453125 1875.917969 1461.476562 1866.046875 1461.476562 L 1568.730469 1461.476562 C 1558.859375 1461.476562 1550.882812 1469.453125 1550.882812 1479.324219 Z M 1586.582031 1497.175781 L 1848.195312 1497.175781 L 1848.195312 1920.023438 L 1586.582031 1920.023438 Z M 1586.582031 1497.175781 " fill-opacity="1" fill-rule="nonzero"/><path fill="#000000" d="M 704.492188 774.210938 L 901.972656 774.210938 C 911.84375 774.210938 919.824219 766.214844 919.824219 756.359375 L 919.824219 558.875 C 919.824219 549.023438 911.84375 541.027344 901.972656 541.027344 L 704.492188 541.027344 C 694.621094 541.027344 686.640625 549.023438 686.640625 558.875 L 686.640625 756.378906 C 686.640625 766.230469 694.621094 774.210938 704.492188 774.210938 Z M 722.339844 576.726562 L 884.125 576.726562 L 884.125 738.527344 L 722.339844 738.527344 Z M 722.339844 576.726562 " fill-opacity="1" fill-rule="nonzero"/><path fill="#000000" d="M 704.492188 1054.101562 L 901.972656 1054.101562 C 911.84375 1054.101562 919.824219 1046.105469 919.824219 1036.253906 L 919.824219 838.769531 C 919.824219 828.917969 911.84375 820.921875 901.972656 820.921875 L 704.492188 820.921875 C 694.621094 820.921875 686.640625 828.917969 686.640625 838.769531 L 686.640625 1036.253906 C 686.640625 1046.105469 694.621094 1054.101562 704.492188 1054.101562 Z M 722.339844 856.621094 L 884.125 856.621094 L 884.125 1018.40625 L 722.339844 1018.40625 Z M 722.339844 856.621094 " fill-opacity="1" fill-rule="nonzero"/><path fill="#000000" d="M 919.824219 1316.148438 L 919.824219 1118.644531 C 919.824219 1108.792969 911.84375 1100.796875 901.972656 1100.796875 L 704.492188 1100.796875 C 694.621094 1100.796875 686.640625 1108.792969 686.640625 1118.644531 L 686.640625 1316.148438 C 686.640625 1326.019531 694.621094 1333.996094 704.492188 1333.996094 L 901.972656 1333.996094 C 911.84375 1333.996094 919.824219 1326.019531 919.824219 1316.148438 Z M 884.125 1298.296875 L 722.339844 1298.296875 L 722.339844 1136.496094 L 884.125 1136.496094 Z M 884.125 1298.296875 " fill-opacity="1" fill-rule="nonzero"/><path fill="#000000" d="M 383.132812 774.210938 L 580.617188 774.210938 C 590.488281 774.210938 598.464844 766.214844 598.464844 756.359375 L 598.464844 558.875 C 598.464844 549.023438 590.488281 541.027344 580.617188 541.027344 L 383.132812 541.027344 C 373.261719 541.027344 365.285156 549.023438 365.285156 558.875 L 365.285156 756.378906 C 365.285156 766.230469 373.261719 774.210938 383.132812 774.210938 Z M 400.984375 576.726562 L 562.769531 576.726562 L 562.769531 738.527344 L 400.984375 738.527344 Z M 400.984375 576.726562 " fill-opacity="1" fill-rule="nonzero"/><path fill="#000000" d="M 383.132812 1054.101562 L 580.617188 1054.101562 C 590.488281 1054.101562 598.464844 1046.105469 598.464844 1036.253906 L 598.464844 838.769531 C 598.464844 828.917969 590.488281 820.921875 580.617188 820.921875 L 383.132812 820.921875 C 373.261719 820.921875 365.285156 828.917969 365.285156 838.769531 L 365.285156 1036.253906 C 365.285156 1046.105469 373.261719 1054.101562 383.132812 1054.101562 Z M 400.984375 856.621094 L 562.769531 856.621094 L 562.769531 1018.40625 L 400.984375 1018.40625 Z M 400.984375 856.621094 " fill-opacity="1" fill-rule="nonzero"/><path fill="#000000" d="M 383.132812 1333.996094 L 580.617188 1333.996094 C 590.488281 1333.996094 598.464844 1326.019531 598.464844 1316.148438 L 598.464844 1118.644531 C 598.464844 1108.792969 590.488281 1100.796875 580.617188 1100.796875 L 383.132812 1100.796875 C 373.261719 1100.796875 365.285156 1108.792969 365.285156 1118.644531 L 365.285156 1316.148438 C 365.285156 1326.019531 373.261719 1333.996094 383.132812 1333.996094 Z M 400.984375 1136.496094 L 562.769531 1136.496094 L 562.769531 1298.296875 L 400.984375 1298.296875 Z M 400.984375 1136.496094 " fill-opacity="1" fill-rule="nonzero"/><path fill="#000000" d="M 680.429688 1461.476562 L 383.132812 1461.476562 C 373.261719 1461.476562 365.285156 1469.453125 365.285156 1479.324219 L 365.285156 1937.871094 C 365.285156 1947.742188 373.261719 1955.71875 383.132812 1955.71875 L 680.429688 1955.71875 C 690.300781 1955.71875 698.277344 1947.742188 698.277344 1937.871094 L 698.277344 1479.324219 C 698.277344 1469.453125 690.300781 1461.476562 680.429688 1461.476562 Z M 662.582031 1920.023438 L 400.984375 1920.023438 L 400.984375 1497.175781 L 662.582031 1497.175781 Z M 662.582031 1920.023438 " fill-opacity="1" fill-rule="nonzero"/></svg>