<svg xmlns="http://www.w3.org/2000/svg" xmlns:xlink="http://www.w3.org/1999/xlink" width="3000" zoomAndPan="magnify" viewBox="0 0 2250 2250.000011" height="3000" preserveAspectRatio="xMidYMid meet" version="1.0"><defs><clipPath id="eae7a27f1d"><path d="M 0.5 0 L 2249.5 0 L 2249.5 2249 L 0.5 2249 Z M 0.5 0 " clip-rule="nonzero"/></clipPath><clipPath id="80efd275de"><path d="M 1125 0 C 503.957031 0 0.5 503.457031 0.5 1124.5 C 0.5 1745.542969 503.957031 2249 1125 2249 C 1746.042969 2249 2249.5 1745.542969 2249.5 1124.5 C 2249.5 503.457031 1746.042969 0 1125 0 " clip-rule="nonzero"/></clipPath><clipPath id="c92edb0583"><path d="M 0.5 0 L 2248.609375 0 L 2248.609375 2248.109375 L 0.5 2248.109375 Z M 0.5 0 " clip-rule="nonzero"/></clipPath><clipPath id="73d7f050ee"><path d="M 1124.554688 0 C 503.757812 0 0.5 503.257812 0.5 1124.054688 C 0.5 1744.851562 503.757812 2248.109375 1124.554688 2248.109375 C 1745.351562 2248.109375 2248.609375 1744.851562 2248.609375 1124.054688 C 2248.609375 503.257812 1745.351562 0 1124.554688 0 " clip-rule="nonzero"/></clipPath><clipPath id="48041db3e2"><path d="M 1760 481 L 1920.925781 481 L 1920.925781 1772 L 1760 1772 Z M 1760 481 " clip-rule="nonzero"/></clipPath><clipPath id="aae519f0ad"><path d="M 334.839844 493 L 596 493 L 596 1774 L 334.839844 1774 Z M 334.839844 493 " clip-rule="nonzero"/></clipPath></defs><g clip-path="url(#eae7a27f1d)"><g clip-path="url(#80efd275de)"><path fill="#acadf4" d="M 0.5 0 L 2249.5 0 L 2249.5 2249 L 0.5 2249 Z M 0.5 0 " fill-opacity="1" fill-rule="nonzero"/></g></g><g clip-path="url(#c92edb0583)"><g clip-path="url(#73d7f050ee)"><path stroke-linecap="butt" transform="matrix(13.786788, 0, 0, 13.786788, 0.499772, 0.0000999556)" fill="none" stroke-linejoin="miter" d="M 81.531314 -0.0000072501 C 36.502922 -0.0000072501 0.0000165101 36.502899 0.0000165101 81.53129 C 0.0000165101 126.559682 36.502922 163.062587 81.531314 163.062587 C 126.559705 163.062587 163.062611 126.559682 163.062611 81.53129 C 163.062611 36.502899 126.559705 -0.0000072501 81.531314 -0.0000072501 " stroke="#000000" stroke-width="0.434839" stroke-opacity="1" stroke-miterlimit="4"/></g></g><path fill="#000000" d="M 1148.300781 983.632812 C 1047.972656 983.632812 966.351562 1065.253906 966.351562 1165.578125 C 966.351562 1265.902344 1047.972656 1347.511719 1148.300781 1347.511719 C 1248.625 1347.511719 1330.234375 1265.902344 1330.234375 1165.578125 C 1330.234375 1065.253906 1248.625 983.632812 1148.300781 983.632812 Z M 1148.300781 1322.335938 C 1061.859375 1322.335938 991.527344 1252.007812 991.527344 1165.578125 C 991.527344 1079.136719 1061.859375 1008.808594 1148.300781 1008.808594 C 1234.730469 1008.808594 1305.058594 1079.125 1305.058594 1165.578125 C 1305.058594 1252.007812 1234.730469 1322.335938 1148.300781 1322.335938 Z M 1148.300781 1322.335938 " fill-opacity="1" fill-rule="nonzero"/><path fill="#000000" d="M 1148.300781 680.480469 C 880.816406 680.480469 663.195312 898.097656 663.195312 1165.578125 C 663.195312 1433.058594 880.816406 1650.664062 1148.300781 1650.664062 C 1415.78125 1650.664062 1633.390625 1433.058594 1633.390625 1165.578125 C 1633.390625 898.097656 1415.78125 680.480469 1148.300781 680.480469 Z M 1148.300781 1625.488281 C 894.703125 1625.488281 688.371094 1419.171875 688.371094 1165.578125 C 688.371094 911.984375 894.703125 705.65625 1148.300781 705.65625 C 1401.898438 705.65625 1608.214844 911.972656 1608.214844 1165.578125 C 1608.214844 1419.1875 1401.910156 1625.488281 1148.300781 1625.488281 Z M 1148.300781 1625.488281 " fill-opacity="1" fill-rule="nonzero"/><path fill="#000000" d="M 1148.300781 578.378906 C 824.511719 578.378906 561.105469 841.792969 561.105469 1165.566406 C 561.105469 1489.339844 824.511719 1752.765625 1148.300781 1752.765625 C 1472.074219 1752.765625 1735.480469 1489.351562 1735.480469 1165.578125 C 1735.480469 841.804688 1472.074219 578.378906 1148.300781 578.378906 Z M 1148.300781 1727.589844 C 838.394531 1727.589844 586.285156 1475.480469 586.285156 1165.578125 C 586.285156 855.679688 838.394531 603.570312 1148.300781 603.570312 C 1458.191406 603.570312 1710.304688 855.691406 1710.304688 1165.578125 C 1710.316406 1475.480469 1458.191406 1727.589844 1148.300781 1727.589844 Z M 1148.300781 1727.589844 " fill-opacity="1" fill-rule="nonzero"/><g clip-path="url(#48041db3e2)"><path fill="#000000" d="M 1910.628906 481.855469 C 1904.648438 480.75 1898.757812 484.058594 1896.582031 489.75 C 1796.996094 750.785156 1752.648438 988.113281 1761.019531 1215.3125 C 1761.726562 1234.511719 1777.410156 1249.550781 1796.734375 1249.550781 L 1813.941406 1249.550781 L 1789.28125 1702.273438 C 1788.273438 1720.515625 1794.644531 1737.875 1807.207031 1751.140625 C 1819.769531 1764.421875 1836.777344 1771.734375 1855.054688 1771.734375 C 1891.382812 1771.734375 1920.925781 1742.179688 1920.925781 1705.875 L 1920.925781 494.230469 C 1920.925781 488.164062 1916.582031 482.953125 1910.628906 481.855469 Z M 1895.75 1705.863281 C 1895.75 1728.292969 1877.496094 1746.546875 1855.054688 1746.546875 C 1843.761719 1746.546875 1833.265625 1742.039062 1825.484375 1733.820312 C 1817.730469 1725.636719 1813.789062 1714.914062 1814.40625 1703.648438 L 1839.796875 1237.644531 C 1840 1234.195312 1838.753906 1230.808594 1836.386719 1228.304688 C 1834.007812 1225.800781 1830.695312 1224.363281 1827.234375 1224.363281 L 1796.734375 1224.363281 C 1791.121094 1224.363281 1786.386719 1219.882812 1786.171875 1214.371094 C 1778.644531 1010.019531 1814.53125 797.03125 1895.75 565.226562 Z M 1895.75 1705.863281 " fill-opacity="1" fill-rule="nonzero"/></g><g clip-path="url(#aae519f0ad)"><path fill="#000000" d="M 513.4375 962.5 C 515.765625 960.800781 518.105469 959.085938 520.484375 957.363281 C 555.757812 931.683594 595.738281 902.59375 595.738281 862.425781 L 586.925781 569.441406 C 586.371094 550.8125 571.339844 536.210938 552.6875 536.210938 C 533.804688 536.210938 518.433594 551.582031 518.433594 570.460938 L 518.433594 777.984375 C 518.433594 781.8125 515.324219 784.933594 511.484375 784.933594 C 507.660156 784.933594 504.535156 781.824219 504.523438 778.023438 L 503.515625 531.804688 C 503.429688 510.808594 486.273438 493.714844 465.273438 493.714844 C 444.265625 493.714844 427.109375 510.808594 427.03125 531.804688 L 426.027344 778.023438 C 426.011719 781.835938 422.890625 784.933594 419.078125 784.933594 C 415.238281 784.933594 412.128906 781.8125 412.128906 777.984375 L 412.128906 570.460938 C 412.128906 551.582031 396.757812 536.210938 377.875 536.210938 C 359.234375 536.210938 344.191406 550.800781 343.636719 569.429688 L 334.839844 862.816406 C 334.839844 902.632812 374.828125 931.734375 410.113281 957.402344 C 412.480469 959.125 414.808594 960.824219 417.125 962.511719 L 380.59375 1684.058594 C 379.410156 1707.484375 387.667969 1729.765625 403.832031 1746.761719 C 419.996094 1763.753906 441.824219 1773.132812 465.289062 1773.132812 C 488.75 1773.132812 510.578125 1763.765625 526.742188 1746.761719 C 542.90625 1729.742188 551.148438 1707.484375 549.980469 1684.058594 Z M 508.488281 1729.425781 C 497.121094 1741.371094 481.777344 1747.96875 465.273438 1747.96875 C 448.773438 1747.96875 433.425781 1741.386719 422.058594 1729.425781 C 410.707031 1717.46875 404.902344 1701.820312 405.734375 1685.34375 L 442.605469 957.035156 C 442.816406 952.84375 440.917969 948.816406 437.554688 946.296875 C 433.476562 943.253906 429.234375 940.167969 424.929688 937.035156 C 394.503906 914.902344 360.015625 889.804688 360.015625 863.191406 L 368.824219 570.1875 C 368.964844 565.25 372.941406 561.398438 377.890625 561.398438 C 382.886719 561.398438 386.964844 565.464844 386.964844 570.476562 L 386.964844 778 C 386.964844 795.710938 401.378906 810.121094 419.089844 810.121094 C 436.738281 810.121094 451.152344 795.773438 451.214844 778.125 L 452.222656 531.90625 C 452.246094 524.730469 458.113281 518.890625 465.289062 518.890625 C 472.460938 518.890625 478.316406 524.730469 478.355469 531.90625 L 479.347656 778.125 C 479.4375 795.761719 493.835938 810.109375 511.484375 810.109375 C 529.195312 810.109375 543.609375 795.695312 543.609375 777.984375 L 543.609375 570.460938 C 543.609375 565.464844 547.675781 561.386719 552.6875 561.386719 C 557.632812 561.386719 561.609375 565.25 561.75 570.1875 L 570.5625 862.804688 C 570.5625 889.792969 536.09375 914.878906 505.683594 937.007812 C 501.351562 940.15625 497.109375 943.253906 493.019531 946.296875 C 489.644531 948.816406 487.757812 952.832031 487.972656 957.035156 L 524.839844 1685.34375 C 525.648438 1701.808594 519.84375 1717.46875 508.488281 1729.425781 Z M 508.488281 1729.425781 " fill-opacity="1" fill-rule="nonzero"/></g></svg>