<svg xmlns="http://www.w3.org/2000/svg" xmlns:xlink="http://www.w3.org/1999/xlink" width="3000" zoomAndPan="magnify" viewBox="0 0 2250 2250.000011" height="3000" preserveAspectRatio="xMidYMid meet" version="1.0"><defs><clipPath id="77e400e732"><path d="M 0.5 0 L 2249.5 0 L 2249.5 2249 L 0.5 2249 Z M 0.5 0 " clip-rule="nonzero"/></clipPath><clipPath id="117f50f848"><path d="M 1125 0 C 503.957031 0 0.5 503.457031 0.5 1124.5 C 0.5 1745.542969 503.957031 2249 1125 2249 C 1746.042969 2249 2249.5 1745.542969 2249.5 1124.5 C 2249.5 503.457031 1746.042969 0 1125 0 " clip-rule="nonzero"/></clipPath><clipPath id="9e577fab2c"><path d="M 0.5 0 L 2248.609375 0 L 2248.609375 2248.109375 L 0.5 2248.109375 Z M 0.5 0 " clip-rule="nonzero"/></clipPath><clipPath id="f950a5d18c"><path d="M 1124.554688 0 C 503.757812 0 0.5 503.257812 0.5 1124.054688 C 0.5 1744.851562 503.757812 2248.109375 1124.554688 2248.109375 C 1745.351562 2248.109375 2248.609375 1744.851562 2248.609375 1124.054688 C 2248.609375 503.257812 1745.351562 0 1124.554688 0 " clip-rule="nonzero"/></clipPath><clipPath id="e11ae9a344"><path d="M 443.859375 320.597656 L 1683.8125 320.597656 L 1683.8125 1934.269531 L 443.859375 1934.269531 Z M 443.859375 320.597656 " clip-rule="nonzero"/></clipPath></defs><g clip-path="url(#77e400e732)"><g clip-path="url(#117f50f848)"><path fill="#acadf4" d="M 0.5 0 L 2249.5 0 L 2249.5 2249 L 0.5 2249 Z M 0.5 0 " fill-opacity="1" fill-rule="nonzero"/></g></g><g clip-path="url(#9e577fab2c)"><g clip-path="url(#f950a5d18c)"><path stroke-linecap="butt" transform="matrix(13.786788, 0, 0, 13.786788, 0.499772, 0.0000999556)" fill="none" stroke-linejoin="miter" d="M 81.531314 -0.0000072501 C 36.502922 -0.0000072501 0.0000165101 36.502899 0.0000165101 81.53129 C 0.0000165101 126.559682 36.502922 163.062587 81.531314 163.062587 C 126.559705 163.062587 163.062611 126.559682 163.062611 81.53129 C 163.062611 36.502899 126.559705 -0.0000072501 81.531314 -0.0000072501 " stroke="#000000" stroke-width="0.434839" stroke-opacity="1" stroke-miterlimit="4"/></g></g><path fill="#000000" d="M 1216.675781 1808.671875 C 1183.257812 1827.867188 1133.980469 1835.699219 1099.949219 1814.117188 C 1095.503906 1811.292969 1091.410156 1818.371094 1095.839844 1821.183594 C 1132.359375 1844.335938 1184.902344 1836.355469 1220.796875 1815.734375 C 1225.355469 1813.109375 1221.246094 1806.035156 1216.675781 1808.671875 " fill-opacity="1" fill-rule="nonzero"/><path fill="#000000" d="M 1135.25 1764.464844 C 1151.511719 1765.828125 1167.648438 1766.964844 1183.847656 1764.328125 C 1189.023438 1763.484375 1186.824219 1755.601562 1181.6875 1756.445312 C 1166.28125 1758.941406 1150.695312 1757.582031 1135.25 1756.292969 C 1130.011719 1755.851562 1130.050781 1764.039062 1135.25 1764.464844 " fill-opacity="1" fill-rule="nonzero"/><path fill="#000000" d="M 1096.605469 1894.078125 C 1067.421875 1888.742188 1012.292969 1868.550781 1011.738281 1868.351562 C 1009.617188 1867.582031 1007.28125 1868.664062 1006.515625 1870.785156 C 1005.738281 1872.902344 1006.828125 1875.261719 1008.9375 1876.042969 C 1011.222656 1876.875 1065.273438 1896.664062 1095.199219 1902.136719 C 1109.894531 1904.597656 1124.550781 1905.832031 1139.304688 1905.832031 C 1191.636719 1905.832031 1245.058594 1890.230469 1304.195312 1858.058594 C 1306.179688 1856.988281 1306.90625 1854.503906 1305.839844 1852.523438 C 1304.757812 1850.515625 1302.285156 1849.8125 1300.3125 1850.871094 C 1226.183594 1891.191406 1161.421875 1904.925781 1096.605469 1894.078125 " fill-opacity="1" fill-rule="nonzero"/><g clip-path="url(#e11ae9a344)"><path fill="#000000" d="M 1678.101562 532.941406 C 1675.0625 514.679688 1667.890625 497.917969 1656.777344 483.113281 C 1655.421875 481.296875 1652.859375 480.957031 1651.074219 482.304688 C 1649.28125 483.667969 1648.929688 486.242188 1650.273438 488.03125 C 1660.582031 501.777344 1667.238281 517.34375 1670.140625 534.621094 C 1696.410156 638.1875 1624.742188 767.953125 1540.375 833.496094 C 1525.871094 844.039062 1511.441406 853.273438 1497.476562 862.214844 C 1459.816406 886.300781 1424.238281 909.066406 1396.808594 951.808594 C 1380.699219 976.894531 1369.472656 1001.777344 1358.609375 1025.839844 C 1334.960938 1078.21875 1314.542969 1123.441406 1252.820312 1154.214844 C 1209.140625 1175.984375 1201.644531 1233.34375 1196.15625 1275.226562 L 1195.90625 1277.132812 C 1187.804688 1338.839844 1186.988281 1603.324219 1194.660156 1670.179688 C 1197.875 1697.9375 1202.761719 1722.65625 1209.59375 1745.726562 C 1218.859375 1776.953125 1239.28125 1801.734375 1270.3125 1819.300781 C 1297.5625 1834.726562 1333.253906 1844.828125 1376.84375 1849.21875 C 1404.472656 1852.6875 1469.183594 1860.945312 1481.464844 1872.386719 C 1487.566406 1878.085938 1489.828125 1883.382812 1488.195312 1887.558594 C 1476.453125 1917.613281 1309.53125 1927.914062 1230.539062 1927.914062 L 1086.097656 1927.914062 C 1007.105469 1927.914062 840.183594 1917.597656 828.441406 1887.558594 C 826.796875 1883.382812 829.066406 1877.785156 835.171875 1872.097656 C 847.453125 1860.65625 912.164062 1852.523438 940.21875 1849.003906 C 978.144531 1845.183594 1025.84375 1837.941406 1058.230469 1815.53125 C 1103.226562 1784.417969 1115.695312 1724.585938 1121.960938 1670.15625 C 1129.648438 1603.335938 1128.832031 1338.855469 1120.730469 1277.117188 L 1120.304688 1273.902344 C 1115.332031 1235.828125 1107.835938 1178.28125 1070.964844 1155.90625 C 1066.242188 1153.03125 1061.632812 1150.292969 1057.164062 1147.632812 C 1023.632812 1127.691406 997.148438 1111.941406 976.476562 1074.597656 C 966.566406 1056.6875 958.90625 1037.226562 951.511719 1018.398438 C 942.746094 996.140625 933.703125 973.121094 920.71875 952.035156 C 893.242188 909.320312 857.652344 886.59375 819.964844 862.527344 C 805.988281 853.613281 791.542969 844.378906 777.140625 833.925781 C 758.957031 819.824219 740.644531 801.992188 722.714844 780.917969 C 703.523438 758.34375 687.074219 732.664062 673.460938 704.289062 C 711.625 696.164062 747.578125 678.179688 775.332031 650.6875 C 779.738281 646.324219 783.933594 641.71875 787.914062 636.890625 C 835.863281 578.460938 852.890625 499.8125 812.351562 420.21875 C 788.933594 374.222656 751.683594 346.929688 701.464844 331.203125 C 650.289062 315.175781 587.789062 315.78125 540.695312 343.703125 C 490.914062 373.226562 456.230469 423.75 446.570312 481.132812 C 444.035156 496.152344 443.269531 512.09375 444.3125 527.316406 C 446.167969 554.671875 451.496094 582.632812 463.625 607.390625 C 483.242188 647.394531 517.097656 682.027344 559.230469 697.667969 C 571.046875 702.054688 583.957031 705.511719 596.453125 707.238281 C 619.195312 710.355469 642.515625 709.824219 665.222656 705.875 C 679.324219 735.667969 696.441406 762.605469 716.535156 786.226562 C 734.820312 807.730469 753.542969 825.953125 772.269531 840.484375 C 786.972656 851.152344 801.527344 860.449219 815.59375 869.425781 C 852.5 893 887.375 915.257812 913.847656 956.410156 C 926.394531 976.792969 935.308594 999.480469 943.9375 1021.414062 C 951.433594 1040.46875 959.183594 1060.195312 969.34375 1078.570312 C 991.09375 1117.855469 1018.421875 1134.101562 1053.003906 1154.671875 C 1057.464844 1157.332031 1062.046875 1160.054688 1066.757812 1162.90625 C 1100.273438 1183.25 1107.46875 1238.4375 1112.230469 1274.960938 L 1112.644531 1278.179688 C 1120.707031 1339.585938 1121.523438 1602.707031 1113.863281 1669.195312 C 1107.808594 1721.800781 1095.917969 1779.5 1053.621094 1808.773438 C 1022.753906 1830.109375 976.375 1837.074219 938.800781 1840.867188 C 889.472656 1847.0625 842.117188 1854.324219 829.632812 1865.964844 C 820.832031 1874.164062 817.878906 1882.058594 820.867188 1889.6875 C 838.234375 1934.121094 1083.636719 1934.359375 1086.109375 1934.359375 L 1230.539062 1934.359375 C 1233.015625 1934.359375 1478.414062 1934.121094 1495.78125 1889.703125 C 1498.757812 1882.085938 1495.804688 1874.316406 1487.003906 1866.105469 C 1474.519531 1854.476562 1427.164062 1847.148438 1377.230469 1840.882812 C 1335.199219 1836.65625 1300.566406 1826.984375 1274.304688 1812.113281 C 1245.183594 1795.617188 1226.042969 1772.488281 1217.40625 1743.355469 C 1210.699219 1720.753906 1205.902344 1696.511719 1202.761719 1669.234375 C 1195.113281 1602.707031 1195.929688 1339.574219 1203.980469 1278.203125 L 1204.230469 1276.296875 C 1209.769531 1234.011719 1216.652344 1181.382812 1256.449219 1161.542969 C 1320.769531 1129.484375 1342.746094 1080.777344 1366.03125 1029.21875 C 1376.765625 1005.421875 1387.882812 980.816406 1403.65625 956.246094 C 1430.113281 915.007812 1464.964844 892.710938 1501.859375 869.113281 C 1515.925781 860.105469 1530.46875 850.800781 1545.246094 840.042969 C 1631.796875 772.808594 1705.136719 639.425781 1678.101562 532.941406 " fill-opacity="1" fill-rule="nonzero"/></g><path fill="#000000" d="M 1632 623.15625 C 1623.460938 557.664062 1524.613281 541.242188 1468.78125 530.445312 C 1406.304688 518.339844 1339.417969 512.449219 1264.234375 512.449219 C 1152.464844 512.449219 1037.921875 525.628906 927.136719 538.304688 C 909.941406 540.257812 892.839844 542.3125 875.734375 544.191406 C 811.550781 551.394531 761.457031 565.859375 726.832031 587.375 C 656.382812 631.152344 709.691406 708.890625 750.605469 756.980469 C 766.730469 775.960938 783.03125 791.914062 799.078125 804.4375 C 812.515625 814.164062 826.28125 822.925781 839.640625 831.429688 C 878.988281 856.550781 919.726562 882.570312 951.988281 932.714844 C 966.566406 956.523438 976.261719 981.144531 985.632812 1004.878906 C 992.878906 1023.445312 999.808594 1040.949219 1008.523438 1056.738281 C 1029.785156 1095.269531 1073.109375 1121.816406 1112.871094 1136.785156 C 1157.25 1153.484375 1195.351562 1141.753906 1236.542969 1121.210938 C 1286.550781 1096.25 1302.761719 1060.332031 1325.253906 1010.605469 C 1336.078125 986.542969 1348.472656 959.222656 1365.980469 931.820312 C 1397.753906 882.316406 1438.492188 856.296875 1477.746094 831.1875 C 1491.109375 822.601562 1504.875 813.757812 1518.324219 804.023438 C 1563.46875 768.785156 1616.980469 709.546875 1630.152344 652.589844 C 1632.652344 641.808594 1633.15625 632.035156 1632 623.15625 " fill-opacity="1" fill-rule="nonzero"/><path fill="#000000" d="M 560.789062 675.457031 C 525.652344 660.183594 493.613281 633.988281 477.601562 598.4375 C 475.441406 593.632812 468.433594 597.792969 470.570312 602.558594 C 487.070312 639.199219 520.453125 666.765625 556.667969 682.519531 C 561.441406 684.601562 565.597656 677.550781 560.789062 675.457031 " fill-opacity="1" fill-rule="nonzero"/><path fill="#000000" d="M 462.644531 577.96875 C 456.214844 577.96875 456.214844 586.152344 462.644531 586.152344 C 462.644531 586.152344 469.074219 577.96875 462.644531 577.96875 " fill-opacity="1" fill-rule="nonzero"/><path fill="#000000" d="M 784.136719 404.238281 C 784.136719 404.238281 787.351562 396.054688 784.136719 396.054688 C 777.707031 396.054688 777.707031 404.238281 784.136719 404.238281 " fill-opacity="1" fill-rule="nonzero"/><path fill="#000000" d="M 1610.699219 631.972656 C 1585.660156 714.566406 1526.523438 767.296875 1454.464844 809.988281 C 1419.214844 830.871094 1388.070312 850.585938 1361.835938 882.871094 C 1335.839844 914.867188 1318.8125 953.347656 1308.175781 992.984375 C 1306.804688 998.09375 1314.65625 1000.25 1316.023438 995.167969 C 1327.964844 950.671875 1348.183594 909.785156 1378.925781 875.367188 C 1408.324219 842.464844 1447.695312 824.605469 1484.203125 801.3125 C 1547.695312 760.789062 1596.371094 707.339844 1618.5625 634.140625 C 1620.09375 629.082031 1612.234375 626.9375 1610.699219 631.972656 " fill-opacity="1" fill-rule="nonzero"/><path fill="#000000" d="M 1304.597656 1011.6875 C 1302.4375 1011.097656 1300.1875 1012.371094 1299.585938 1014.550781 C 1289.902344 1049.800781 1266.910156 1079.453125 1236.503906 1095.886719 C 1234.519531 1096.957031 1233.78125 1099.441406 1234.847656 1101.421875 C 1235.589844 1102.796875 1236.984375 1103.578125 1238.425781 1103.578125 C 1239.078125 1103.578125 1239.746094 1103.429688 1240.375 1103.085938 C 1272.722656 1085.59375 1297.175781 1054.117188 1307.445312 1016.722656 C 1308.035156 1014.539062 1306.769531 1012.292969 1304.597656 1011.6875 " fill-opacity="1" fill-rule="nonzero"/><path fill="#000000" d="M 851.296875 584.664062 C 948.472656 565.695312 1049.25 559.769531 1148.03125 555.570312 C 1260.503906 550.789062 1373.226562 556.816406 1485.359375 565.496094 C 1490.59375 565.898438 1490.558594 557.710938 1485.359375 557.308594 C 1370.511719 548.429688 1255.355469 542.816406 1140.195312 547.710938 C 1043.273438 551.835938 944.464844 558.167969 849.125 576.78125 C 843.976562 577.777344 846.160156 585.660156 851.296875 584.664062 " fill-opacity="1" fill-rule="nonzero"/><path fill="#000000" d="M 1532.011719 566.351562 C 1530.453125 566.351562 1530.453125 568.773438 1532.011719 568.773438 C 1533.570312 568.773438 1533.570312 566.351562 1532.011719 566.351562 " fill-opacity="1" fill-rule="nonzero"/><path fill="#000000" d="M 907.894531 914.375 C 963.125 981.167969 973.171875 1078.796875 1048.332031 1128.726562 C 1052.730469 1131.640625 1056.796875 1124.554688 1052.441406 1121.664062 C 980.417969 1073.804688 968.527344 978.316406 917.039062 912.902344 C 890.125 878.683594 855 862.328125 819.636719 838.628906 C 776.675781 809.835938 737.859375 772.972656 712.429688 727.480469 C 709.867188 722.890625 702.820312 727.015625 705.40625 731.617188 C 727.195312 770.601562 758.503906 803.328125 793.96875 830.128906 C 832.082031 858.921875 876.941406 876.945312 907.894531 914.375 " fill-opacity="1" fill-rule="nonzero"/><path fill="#000000" d="M 1235.550781 1135.285156 C 1194.308594 1170.675781 1139.695312 1172.101562 1093.855469 1144.617188 C 1089.335938 1141.917969 1085.242188 1148.980469 1089.738281 1151.695312 C 1138.902344 1181.15625 1197.285156 1178.859375 1241.316406 1141.074219 C 1245.308594 1137.644531 1239.519531 1131.878906 1235.550781 1135.285156 " fill-opacity="1" fill-rule="nonzero"/><path fill="#000000" d="M 1135.125 1664.253906 C 1132.460938 1689.714844 1125.804688 1714.824219 1119.914062 1739.671875 C 1118.695312 1744.804688 1126.558594 1746.984375 1127.777344 1741.851562 C 1138.753906 1695.53125 1143.9375 1651.894531 1146.675781 1604.460938 C 1149.878906 1548.941406 1155.027344 1493.589844 1154.261719 1437.90625 C 1153.519531 1384.722656 1147.96875 1331.589844 1142.972656 1278.707031 C 1140.058594 1247.820312 1139.519531 1211.890625 1117.753906 1187.535156 C 1114.25 1183.601562 1108.5 1189.402344 1112.003906 1193.324219 C 1135.925781 1220.113281 1133.214844 1264.808594 1137.109375 1298.484375 C 1142.707031 1347.113281 1145.546875 1396.957031 1146.226562 1445.890625 C 1146.914062 1496.148438 1142.21875 1546.382812 1139.015625 1596.5 C 1137.570312 1619.050781 1137.460938 1641.765625 1135.125 1664.253906 " fill-opacity="1" fill-rule="nonzero"/><path fill="#000000" d="M 1066.003906 1821.863281 C 1052.140625 1834.964844 1034.082031 1843.214844 1016.574219 1850.152344 C 1011.738281 1852.066406 1013.847656 1859.988281 1018.734375 1858.046875 C 1037.632812 1850.554688 1056.8125 1841.789062 1071.765625 1827.652344 C 1075.597656 1824.019531 1069.820312 1818.242188 1066.003906 1821.863281 " fill-opacity="1" fill-rule="nonzero"/><path fill="#000000" d="M 981.839844 1858.3125 C 951.257812 1865.273438 923.46875 1865.488281 892.75 1866.621094 C 878.285156 1867.152344 858.792969 1869.773438 856.910156 1887.191406 C 856.34375 1892.4375 864.496094 1892.375 865.058594 1887.191406 C 866.929688 1869.902344 905.636719 1874.542969 917.0625 1874.882812 C 939.679688 1875.550781 962.023438 1871.199219 984.011719 1866.207031 C 989.132812 1865.035156 986.960938 1857.152344 981.839844 1858.3125 " fill-opacity="1" fill-rule="nonzero"/><path fill="#000000" d="M 1210.925781 1829.605469 C 1179.589844 1844.992188 1137.585938 1852.671875 1105.699219 1834.980469 C 1101.101562 1832.429688 1096.996094 1839.496094 1101.59375 1842.042969 C 1136.191406 1861.25 1181 1853.390625 1215.042969 1836.667969 C 1219.765625 1834.359375 1215.632812 1827.296875 1210.925781 1829.605469 " fill-opacity="1" fill-rule="nonzero"/><path fill="#000000" d="M 1102.007812 1801.003906 C 1103.4375 1798.859375 1104.84375 1796.828125 1106.214844 1794.835938 C 1111.839844 1786.6875 1117.152344 1778.984375 1120.933594 1767.945312 C 1121.671875 1765.816406 1120.542969 1763.484375 1118.421875 1762.75 C 1116.296875 1762.019531 1113.976562 1763.15625 1113.234375 1765.285156 C 1109.820312 1775.25 1105.046875 1782.171875 1099.519531 1790.167969 C 1098.128906 1792.199219 1096.683594 1794.28125 1095.238281 1796.460938 C 1093.984375 1798.339844 1094.496094 1800.875 1096.367188 1802.136719 C 1097.058594 1802.605469 1097.839844 1802.820312 1098.617188 1802.820312 C 1099.933594 1802.820312 1101.230469 1802.1875 1102.007812 1801.003906 " fill-opacity="1" fill-rule="nonzero"/><path fill="#000000" d="M 819.234375 497.804688 C 819.914062 502.953125 828.078125 503.027344 827.386719 497.804688 C 823.84375 470.941406 818.066406 444.925781 804.90625 421.039062 C 802.371094 416.433594 795.324219 420.558594 797.875 425.175781 C 810.320312 447.761719 815.894531 472.40625 819.234375 497.804688 " fill-opacity="1" fill-rule="nonzero"/><path fill="#000000" d="M 1613.25 568.722656 L 1613.300781 570.058594 L 1613.324219 570.703125 L 1612.109375 568.722656 C 1612.484375 568.722656 1612.859375 568.734375 1613.25 568.722656 Z M 1496.972656 613.570312 L 1496.972656 613.558594 Z M 1307.269531 632.363281 L 1307.269531 632.351562 Z M 1236.367188 637.191406 L 1236.242188 637.003906 L 1236.292969 637.042969 L 1236.367188 637.179688 C 1236.367188 637.179688 1236.40625 637.179688 1236.40625 637.15625 C 1236.390625 637.167969 1236.378906 637.179688 1236.367188 637.191406 Z M 1157.375 652.011719 C 1157.164062 651.921875 1156.972656 651.871094 1156.785156 651.824219 C 1156.835938 651.847656 1156.898438 651.859375 1156.960938 651.871094 C 1157.125 651.9375 1157.226562 651.9375 1157.375 652 L 1158.46875 652.515625 C 1158.46875 652.515625 1158.480469 652.527344 1158.480469 652.527344 Z M 1155.957031 650.988281 C 1156.398438 650.851562 1156.8125 650.664062 1157.1875 650.382812 C 1157.175781 650.410156 1157.238281 650.410156 1157.277344 650.421875 C 1157.277344 650.421875 1157.25 650.421875 1157.25 650.421875 C 1157.226562 650.382812 1157.1875 650.382812 1157.1875 650.382812 C 1156.796875 650.675781 1156.382812 650.839844 1155.96875 651.003906 L 1155.996094 651.027344 C 1156.070312 651.128906 1156.144531 651.21875 1156.207031 651.304688 C 1156.132812 651.203125 1156.03125 651.089844 1155.957031 650.988281 Z M 1160.589844 650.09375 C 1160.402344 650.15625 1160.203125 650.195312 1160.011719 650.257812 C 1160.203125 650.207031 1160.402344 650.15625 1160.589844 650.09375 Z M 1138.703125 643.535156 L 1138.726562 643.535156 L 1138.726562 643.550781 C 1138.726562 643.550781 1138.714844 643.550781 1138.703125 643.535156 Z M 1138.703125 643.109375 L 1138.714844 643.171875 L 1138.703125 643.121094 Z M 1665.328125 491.234375 C 1665.328125 490.414062 1665.191406 489.621094 1664.976562 488.863281 C 1664.8125 488.222656 1664.574219 487.601562 1664.25 487.023438 C 1664.738281 486.179688 1665.027344 485.21875 1665.152344 484.210938 C 1665.164062 484.160156 1665.164062 484.109375 1665.164062 484.058594 C 1665.242188 483.402344 1665.242188 482.734375 1665.140625 482.042969 C 1665.140625 481.992188 1665.140625 481.964844 1665.140625 481.914062 C 1665.027344 481.324219 1664.863281 480.753906 1664.664062 480.210938 C 1664.652344 480.1875 1664.636719 480.148438 1664.625 480.113281 C 1664.398438 479.558594 1664.125 479.027344 1663.796875 478.523438 C 1663.785156 478.523438 1663.773438 478.511719 1663.757812 478.496094 C 1663.257812 477.753906 1662.617188 477.136719 1661.925781 476.59375 C 1661.710938 476.402344 1661.511719 476.226562 1661.285156 476.074219 C 1661.800781 474.589844 1661.824219 473 1661.308594 471.382812 C 1660.480469 468.875 1658.359375 466.871094 1655.886719 466 C 1655.019531 465.027344 1653.925781 464.257812 1652.734375 463.765625 C 1652.609375 463.160156 1652.382812 462.582031 1652.09375 462 C 1651.0625 459.933594 1649.253906 458.382812 1647.070312 457.664062 C 1645.109375 454.988281 1641.707031 453.664062 1638.328125 454.574219 C 1637.714844 454.738281 1637.109375 454.863281 1636.496094 454.953125 C 1636.167969 454.863281 1635.855469 454.800781 1635.464844 454.738281 C 1634.375 454.574219 1633.316406 454.347656 1632.289062 454.082031 L 1632 454.019531 C 1631.421875 453.664062 1630.769531 453.414062 1630.128906 453.210938 C 1630.066406 452.175781 1629.777344 451.117188 1629.300781 450.109375 C 1627.429688 446.171875 1622.933594 444.308594 1618.875 445.859375 C 1618.460938 446.007812 1618.046875 446.148438 1617.59375 446.273438 C 1617.371094 445.402344 1616.980469 444.535156 1616.441406 443.726562 C 1614.34375 440.523438 1610.386719 439.136719 1606.734375 440.460938 C 1606.21875 440.648438 1605.726562 440.8125 1605.214844 440.976562 C 1604.960938 440.335938 1604.636719 439.714844 1604.246094 439.136719 C 1602.550781 436.550781 1600.164062 435.101562 1596.597656 435.492188 C 1595.152344 434.292969 1593.359375 433.648438 1591.386719 433.648438 C 1591.261719 433.648438 1590.65625 433.675781 1590.519531 433.675781 C 1587.921875 431.390625 1584.152344 431.746094 1580.335938 431.457031 C 1579.105469 428.605469 1576.40625 426.675781 1573.164062 426.550781 C 1571.269531 426.484375 1569.398438 426.285156 1567.5 426.03125 C 1567.851562 424.707031 1567.828125 423.21875 1567.351562 421.792969 C 1565.992188 417.820312 1561.585938 415.273438 1557.566406 416.207031 C 1556.058594 415.476562 1554.492188 415.210938 1552.65625 415.601562 C 1551.363281 414.757812 1549.855469 414.304688 1548.3125 414.304688 C 1548.125 414.304688 1547.320312 414.378906 1547.15625 414.378906 C 1546.0625 414.53125 1544.972656 414.632812 1543.839844 414.695312 C 1543.777344 413.886719 1543.617188 413.078125 1543.300781 412.246094 C 1541.632812 407.757812 1536.445312 405.523438 1532.113281 407.46875 L 1531.332031 407.847656 C 1530.691406 407.71875 1529.890625 407.695312 1529.125 407.820312 C 1526.386719 407.945312 1523.648438 408.210938 1520.921875 408.074219 C 1519.542969 407.113281 1517.480469 407.203125 1515.710938 407.203125 C 1514.078125 404.820312 1511.441406 403.332031 1508.742188 403.332031 C 1507.773438 403.332031 1506.84375 403.519531 1505.902344 403.910156 C 1505.035156 404.300781 1504.171875 403.972656 1503.304688 404.265625 L 1503.050781 404.363281 C 1502.6875 404.328125 1502.3125 404.300781 1502.148438 404.328125 C 1501.59375 404.363281 1501.082031 404.390625 1500.539062 404.390625 C 1499.246094 403.558594 1497.742188 403.105469 1496.171875 403.105469 C 1495.96875 403.105469 1495.140625 403.140625 1494.941406 403.167969 C 1492.277344 403.582031 1489.578125 403.746094 1486.878906 403.886719 C 1483.3125 403.230469 1479.808594 402.421875 1476.226562 401.464844 C 1476.203125 401.464844 1476.140625 401.464844 1476.101562 401.425781 L 1473.089844 399.460938 C 1471.316406 398.261719 1469.21875 397.808594 1467.261719 398.160156 C 1464.4375 395.386719 1459.738281 394.867188 1456.398438 397.429688 C 1454.050781 396.910156 1451.578125 397.578125 1449.707031 399.066406 C 1448.234375 398.324219 1446.792969 397.515625 1445.335938 396.746094 C 1442.773438 395.324219 1439.773438 395.386719 1437.359375 396.835938 L 1436.882812 396.683594 C 1435.980469 396.355469 1434.925781 396.191406 1434.144531 396.230469 C 1432.351562 394.78125 1430 394.125 1427.753906 394.515625 C 1425.304688 391.90625 1421.875 390.644531 1417.53125 392.9375 C 1416.023438 392.546875 1414.417969 392.609375 1412.898438 393.164062 C 1411 392.132812 1408.691406 391.90625 1406.605469 392.546875 C 1404.546875 391.222656 1401.933594 390.894531 1399.523438 391.777344 C 1397.664062 392.421875 1395.769531 392.964844 1393.871094 393.480469 C 1389.878906 392.964844 1385.960938 392.195312 1382.292969 391.476562 C 1380.910156 390.808594 1379.53125 390.125 1378.175781 389.445312 C 1375.761719 388.183594 1372.976562 388.222656 1370.652344 389.484375 L 1370.050781 389.28125 C 1369.371094 389.027344 1368.730469 388.902344 1368.027344 388.839844 L 1366.21875 387.640625 C 1364.257812 386.253906 1361.847656 385.824219 1359.625 386.417969 C 1357.730469 385.121094 1355.457031 384.601562 1353.109375 385.21875 C 1350.246094 382.960938 1346.101562 382.734375 1343.035156 384.929688 C 1341.816406 385.824219 1340.601562 386.632812 1339.34375 387.441406 C 1338.378906 387 1337.324219 386.671875 1336.089844 386.570312 L 1335.613281 386.316406 C 1333.46875 382.308594 1328.09375 380.542969 1324.011719 382.925781 C 1322.628906 383.730469 1321.210938 384.476562 1319.804688 385.15625 C 1318.382812 385.019531 1316.964844 384.828125 1315.558594 384.640625 C 1313.5 381.375 1309.316406 379.824219 1305.585938 381.285156 C 1305.136719 381.472656 1304.660156 381.601562 1304.167969 381.765625 L 1303.816406 381.601562 C 1302.925781 381.246094 1302.019531 381.019531 1301.117188 380.957031 C 1298.644531 377.730469 1293.757812 376.503906 1289.992188 378.890625 C 1289.035156 378.5625 1288.03125 378.472656 1287 378.535156 C 1284.300781 375.660156 1279.453125 374.980469 1276.039062 377.539062 C 1275.085938 378.207031 1274.117188 378.863281 1273.113281 379.507812 C 1270.347656 379.570312 1267.5625 379.445312 1264.785156 379.28125 C 1263.855469 378.925781 1262.929688 378.761719 1262 378.761719 C 1261.773438 378.761719 1261.507812 378.761719 1261.09375 378.789062 C 1259.199219 378.371094 1257.300781 377.957031 1255.40625 377.464844 C 1254.339844 377.210938 1253.246094 377.148438 1252.214844 377.3125 C 1249.328125 375.179688 1245.207031 375.082031 1242.21875 377.4375 C 1242.054688 377.566406 1241.867188 377.691406 1241.703125 377.792969 C 1240.484375 377.753906 1239.292969 377.980469 1238.199219 378.472656 C 1236.53125 379.21875 1234.824219 379.796875 1233.128906 380.378906 C 1229.234375 380.855469 1225.277344 380.984375 1221.523438 381.019531 C 1219.777344 380.402344 1218.082031 379.757812 1216.375 379.117188 C 1214.894531 378.535156 1213.386719 378.410156 1211.878906 378.699219 C 1208.335938 376.40625 1203.640625 377.375 1201.105469 380.402344 C 1198.691406 379.960938 1196.242188 380.667969 1194.484375 382.242188 C 1193.933594 382.28125 1193.003906 382.382812 1192.777344 382.40625 C 1190.53125 380.605469 1187.503906 380.050781 1184.804688 381.058594 C 1182.039062 379.179688 1178.246094 379.179688 1175.421875 381.246094 C 1174.457031 381.953125 1173.488281 382.570312 1172.042969 383.480469 C 1168.601562 384.121094 1165.035156 384.476562 1161.621094 384.726562 C 1160.527344 384.4375 1159.472656 384.121094 1158.382812 383.796875 L 1158.09375 383.730469 C 1157.085938 383.152344 1155.90625 382.796875 1154.386719 382.734375 C 1153.621094 382.570312 1152.816406 382.507812 1151.976562 382.597656 L 1151.335938 382.179688 C 1147.582031 379.757812 1142.558594 381.082031 1140.148438 384.4375 L 1137.773438 382.988281 C 1133.78125 380.476562 1128.480469 382.179688 1126.257812 385.988281 C 1126.195312 385.988281 1126.132812 385.988281 1126.070312 386.027344 C 1123.078125 386.609375 1119.992188 386.898438 1117.066406 387.148438 C 1116.035156 386.734375 1115.042969 386.542969 1113.824219 386.632812 C 1112.570312 385.988281 1111.3125 385.382812 1110.058594 384.726562 C 1107.644531 383.480469 1104.910156 383.480469 1102.636719 384.664062 C 1100.0625 383.632812 1097.007812 384.023438 1094.660156 385.761719 C 1093.792969 386.445312 1092.851562 387.0625 1091.921875 387.640625 C 1090.441406 387.667969 1089.058594 388.097656 1087.84375 388.839844 C 1085.042969 388.699219 1082.277344 388.472656 1079.515625 388.183594 C 1079.390625 388.183594 1078.75 388.121094 1078.585938 388.121094 C 1077.203125 388.121094 1075.847656 388.472656 1074.695312 389.15625 L 1073.210938 389.128906 L 1071.957031 388.636719 C 1069.582031 386.34375 1065.976562 385.636719 1063.027344 386.933594 C 1059.546875 385.21875 1055.304688 386.28125 1052.929688 389.355469 C 1051.738281 390.089844 1050.554688 390.832031 1049.324219 391.511719 C 1048.75 391.386719 1048.359375 391.324219 1048.332031 391.351562 C 1045.734375 390.808594 1043.160156 390.1875 1040.609375 389.507812 C 1038.5625 388.964844 1036.527344 389.21875 1034.796875 390.125 C 1033.414062 389.863281 1031.996094 390 1030.613281 390.515625 C 1030.011719 390.707031 1029.394531 390.894531 1028.78125 391.058594 L 1028.53125 391.121094 L 1026.34375 390.808594 C 1026.117188 390.746094 1025.152344 390.667969 1024.925781 390.667969 C 1023.582031 390.667969 1022.289062 391.035156 1021.132812 391.675781 C 1020.679688 391.613281 1020.265625 391.578125 1019.789062 391.613281 C 1018.820312 390.996094 1017.816406 390.417969 1016.863281 389.796875 C 1013.359375 387.605469 1008.789062 388.449219 1006.152344 391.613281 C 1005.863281 391.96875 1005.609375 392.359375 1005.347656 392.738281 C 1004.003906 392.28125 1002.621094 391.777344 1001.226562 391.285156 C 999.660156 390.707031 997.988281 390.605469 996.40625 391.058594 L 996.34375 391.035156 C 993.492188 389.355469 990.050781 389.609375 987.503906 391.476562 C 985.519531 391.285156 983.257812 391.90625 981.046875 393.417969 C 979.980469 394.097656 979.175781 395.070312 978.410156 395.878906 C 978.222656 396.105469 977.996094 396.394531 977.769531 396.648438 C 977.503906 396.546875 977.316406 396.484375 976.992188 396.417969 C 976 395.8125 974.804688 395.160156 973.136719 395.160156 C 972.847656 395.160156 972.847656 395.195312 972.882812 395.222656 C 972.621094 395.195312 972.808594 395.132812 972.558594 395.132812 C 972.558594 395.09375 973.8125 395.09375 973.8125 395.09375 L 973.8125 395.03125 C 973.8125 395.03125 972.457031 395.007812 972.433594 395.007812 C 969.632812 392.445312 964.167969 392.03125 960.980469 394.125 C 959.886719 394.867188 958.730469 395.511719 957.574219 396.167969 L 957.289062 396.320312 L 957.25 396.292969 C 955.78125 396.355469 954.425781 396.835938 953.269531 397.578125 C 951.183594 397.039062 949.125 396.457031 947.066406 395.839844 C 945.269531 395.296875 943.433594 395.359375 941.789062 396.003906 C 939.542969 394.96875 936.96875 395.03125 934.847656 396.128906 C 931.894531 395.070312 928.515625 395.8125 926.230469 398.160156 C 925.777344 398.652344 925.363281 399.167969 925.011719 399.710938 C 924.75 399.710938 924.496094 399.6875 924.398438 399.6875 C 923.757812 399.6875 923.117188 399.75 922.5 399.914062 C 919.550781 398.261719 915.820312 398.527344 913.144531 400.785156 C 912.628906 401.238281 912.050781 401.652344 911.476562 402.070312 L 911.085938 402.070312 C 908.875 402.070312 906.839844 402.941406 905.371094 404.464844 C 902.984375 404.390625 900.550781 404.328125 897.773438 404.175781 C 896.53125 404.175781 895.300781 404.464844 894.207031 405.007812 L 892.058594 404.820312 C 891.898438 404.78125 891.28125 404.757812 891.117188 404.757812 C 889.359375 404.757812 887.714844 405.335938 886.332031 406.371094 L 884.476562 406.332031 C 882.640625 406.332031 880.933594 406.914062 879.550781 408.011719 L 877.242188 408.238281 C 876.976562 408.273438 876.589844 408.335938 876.273438 408.425781 C 875.082031 408.425781 873.886719 408.425781 872.707031 408.402344 L 869.679688 406.660156 C 866.59375 404.78125 862.699219 405.273438 860.136719 407.554688 C 857.363281 406.949219 854.535156 407.820312 852.578125 409.890625 C 851.9375 410.53125 851.421875 411.277344 851.03125 412.082031 C 849.363281 411.820312 847.71875 411.566406 846.023438 411.277344 C 845.695312 411.214844 844.640625 411.113281 844.351562 411.148438 L 843.347656 410.53125 C 839.617188 408.175781 834.644531 409.308594 832.132812 412.953125 C 831.617188 413.699219 831.226562 414.53125 831.003906 415.375 C 830.234375 415.5 829.457031 415.628906 828.691406 415.726562 C 826.21875 414.859375 823.679688 415.085938 820.878906 417.089844 L 818.179688 416.886719 C 815.769531 416.886719 813.609375 417.898438 812.066406 419.699219 C 812.164062 419.863281 812.265625 420.054688 812.351562 420.21875 C 815.707031 426.777344 818.65625 433.320312 821.195312 439.878906 C 821.457031 439.527344 821.644531 439.136719 821.847656 438.746094 C 824.285156 438.71875 826.40625 437.648438 827.789062 435.78125 C 828.238281 435.226562 828.566406 434.582031 828.816406 433.902344 C 830.75 433.941406 832.671875 433.964844 834.605469 433.875 C 837.304688 433.777344 839.527344 432.488281 840.808594 430.421875 C 841.777344 430.195312 842.707031 429.929688 843.671875 429.714844 C 845.605469 430.773438 847.566406 431.808594 849.589844 432.742188 C 852.640625 434.167969 856.054688 433.523438 858.265625 431.226562 C 858.78125 430.648438 859.234375 430.03125 859.585938 429.386719 C 859.910156 429.386719 860.261719 429.414062 860.613281 429.414062 C 862.699219 429.414062 864.570312 428.644531 865.914062 427.320312 C 867.683594 427.960938 869.457031 428.542969 871.25 429.058594 C 873.085938 429.574219 874.957031 429.449219 876.527344 428.707031 C 879.714844 430.09375 883.117188 429.285156 885.277344 426.800781 C 885.882812 426.058594 886.394531 425.226562 886.722656 424.355469 C 887.175781 424.316406 887.613281 424.277344 888.066406 424.214844 C 889.484375 424.089844 890.703125 423.609375 891.796875 422.804688 L 891.960938 422.765625 C 894.824219 422.765625 897.648438 422.664062 900.511719 422.414062 C 902.984375 424.707031 906.816406 425.085938 909.867188 423.117188 C 911.125 422.3125 912.378906 421.480469 913.597656 420.632812 C 913.886719 420.632812 914.175781 420.609375 914.464844 420.609375 C 915.84375 420.507812 917.140625 420.054688 918.230469 419.308594 C 918.484375 419.308594 918.707031 419.285156 918.835938 419.246094 L 920.378906 418.957031 L 920.640625 418.832031 L 924.007812 418.894531 C 925.238281 418.894531 926.417969 418.855469 927.613281 418.792969 C 929.484375 418.703125 931.089844 418.023438 932.335938 416.886719 C 934.820312 417.117188 937.257812 417.242188 939.792969 417.28125 L 939.957031 417.34375 C 940.988281 417.898438 942.015625 418.414062 943.070312 418.855469 C 945.933594 420.117188 949.085938 419.574219 951.210938 417.671875 C 954.035156 418.414062 956.871094 417.53125 958.707031 415.539062 C 958.792969 415.539062 958.855469 415.5625 958.957031 415.5625 C 959.144531 415.601562 960.152344 415.691406 960.375 415.691406 C 962.8125 415.691406 964.972656 414.53125 966.355469 412.6875 C 968.578125 415.023438 972.167969 415.726562 975.320312 414.152344 L 978.144531 412.664062 C 978.574219 412.765625 978.988281 412.828125 979.441406 412.890625 C 979.601562 412.890625 980.269531 412.914062 980.433594 412.914062 C 981.648438 412.914062 982.84375 412.664062 983.871094 412.109375 C 984.0625 412.148438 984.222656 412.148438 984.386719 412.148438 C 984.652344 412.148438 985.644531 412.046875 985.871094 411.984375 C 988.984375 411.402344 992.074219 410.722656 995 410.039062 C 995.703125 409.914062 996.253906 409.6875 996.253906 409.660156 L 996.34375 409.625 C 998.667969 410.824219 1001.015625 411.957031 1003.425781 412.980469 C 1006.351562 414.175781 1009.492188 413.570312 1011.589844 411.589844 C 1011.714844 411.628906 1011.839844 411.65625 1011.976562 411.691406 C 1014.289062 412.210938 1016.574219 411.730469 1018.308594 410.40625 C 1018.722656 410.367188 1019.460938 410.265625 1019.652344 410.242188 L 1019.75 410.203125 C 1020.90625 410.824219 1022.035156 411.441406 1023.230469 411.957031 C 1026.445312 413.433594 1029.949219 412.664062 1032.132812 410.117188 C 1032.609375 409.5625 1033 408.941406 1033.3125 408.273438 C 1035.535156 408.527344 1037.949219 408.753906 1040.546875 408.855469 C 1042.832031 410.984375 1046.273438 411.464844 1049.199219 409.976562 L 1049.390625 409.890625 C 1051.449219 410.824219 1053.859375 410.722656 1056.019531 409.660156 C 1058.457031 408.402344 1060.867188 407.078125 1063.277344 405.714844 C 1065.664062 406.976562 1068.039062 408.136719 1070.550781 409.207031 C 1073.414062 410.429688 1076.464844 409.851562 1078.585938 407.984375 C 1078.6875 408.011719 1078.773438 408.046875 1078.902344 408.046875 C 1080.195312 408.402344 1081.511719 408.402344 1082.730469 408.074219 C 1084.953125 409.269531 1087.679688 409.234375 1090.066406 407.882812 C 1091.546875 407.039062 1093.015625 406.167969 1094.460938 405.296875 C 1094.660156 405.296875 1094.886719 405.296875 1094.910156 405.273438 C 1095.980469 405.234375 1096.972656 404.984375 1097.902344 404.527344 C 1098.191406 404.554688 1098.515625 404.429688 1098.867188 404.464844 L 1102.863281 403.972656 L 1104.621094 403.972656 C 1105.9375 403.972656 1107.257812 404.175781 1108.613281 404.074219 C 1109.355469 404.039062 1110.09375 404.074219 1110.796875 403.808594 C 1111.210938 403.847656 1111.664062 403.910156 1112.179688 403.886719 C 1114.136719 404.757812 1116.097656 405.589844 1118.132812 406.332031 C 1121.597656 407.59375 1125.265625 406.308594 1127.125 403.367188 C 1129.472656 403.105469 1131.820312 402.777344 1134.167969 402.421875 C 1136.066406 404.101562 1138.738281 404.71875 1141.378906 403.910156 L 1141.503906 403.847656 C 1142.371094 404.300781 1143.234375 404.757812 1144.101562 405.171875 C 1147.480469 406.722656 1151.234375 405.753906 1153.394531 402.875 C 1153.496094 402.777344 1153.558594 402.6875 1153.621094 402.5625 C 1154.878906 403.230469 1156.132812 403.847656 1157.375 404.464844 C 1159.925781 405.652344 1162.6875 405.460938 1164.8125 404.074219 C 1166.667969 404.59375 1168.703125 404.328125 1170.5625 403.332031 L 1172.007812 402.484375 C 1173.074219 402.585938 1174.167969 402.484375 1175.222656 402.132812 C 1177.507812 401.386719 1179.753906 400.621094 1182.003906 399.8125 C 1184.1875 399.6875 1186.386719 399.523438 1188.570312 399.332031 C 1190.140625 400.355469 1191.972656 400.746094 1194.195312 400.328125 L 1198.015625 399.484375 L 1198.65625 399.546875 C 1199.722656 399.648438 1200.753906 399.75 1202.160156 399.773438 C 1203.867188 399.773438 1205.449219 399.296875 1206.691406 398.324219 C 1209.242188 398.816406 1211.878906 399.257812 1214.828125 399.546875 L 1214.957031 399.621094 C 1215.859375 400.140625 1216.765625 400.65625 1217.691406 401.097656 C 1220.84375 402.648438 1224.375 401.945312 1226.570312 399.621094 C 1226.632812 399.621094 1226.699219 399.648438 1226.785156 399.6875 C 1227.589844 399.875 1228.367188 399.914062 1229.195312 399.875 C 1230.714844 402.296875 1233.417969 404.78125 1236.65625 403.949219 C 1237.496094 404.390625 1238.691406 405.007812 1240.324219 405.007812 C 1243.476562 405.007812 1245.886719 402.875 1247.84375 401.199219 C 1248.460938 400.621094 1249.492188 399.75 1250.003906 399.460938 C 1252.191406 399.332031 1254.1875 398.652344 1255.984375 398.097656 C 1257.363281 397.644531 1258.683594 397.203125 1259.488281 397.125 C 1259.9375 397.125 1260.351562 397.0625 1260.742188 396.972656 C 1260.992188 397.453125 1261.320312 397.90625 1261.671875 398.324219 C 1264.082031 401.097656 1268 401.753906 1271.355469 399.875 C 1272.285156 399.332031 1273.25 398.777344 1274.179688 398.199219 C 1274.367188 398.550781 1274.632812 398.902344 1274.882812 399.195312 C 1277.207031 402.007812 1281.085938 402.75 1284.363281 401.035156 C 1285.496094 400.457031 1286.625 399.851562 1287.742188 399.257812 C 1289.550781 401.160156 1292.3125 402.070312 1295.203125 401.363281 L 1297.074219 400.871094 C 1297.652344 401.136719 1298.230469 401.425781 1298.804688 401.652344 C 1301.667969 402.875 1304.746094 402.335938 1306.84375 400.457031 C 1308.550781 404.199219 1312.882812 406.105469 1316.941406 404.390625 C 1318.898438 403.558594 1320.796875 402.714844 1322.691406 401.84375 C 1324.074219 402.007812 1325.453125 402.132812 1326.835938 402.273438 C 1327.164062 403.203125 1327.613281 404.039062 1328.21875 404.84375 C 1330.441406 407.78125 1334.296875 408.652344 1337.636719 407.078125 C 1339.382812 407.78125 1341.402344 407.65625 1343.324219 406.949219 C 1345.734375 406.003906 1348.183594 404.757812 1350.597656 403.722656 C 1353.070312 405.007812 1356.035156 406.003906 1359.109375 407.265625 C 1361.597656 408.273438 1364.222656 407.011719 1366.257812 405.625 C 1366.769531 405.753906 1367.285156 403.972656 1367.800781 403.972656 L 1368.089844 406.144531 C 1369.207031 406.8125 1370.335938 409.460938 1371.492188 410.078125 C 1374.382812 411.566406 1377.671875 411.148438 1379.917969 409.207031 C 1380.296875 409.308594 1380.722656 409.398438 1381.101562 409.5 C 1381.261719 409.535156 1381.390625 409.5625 1381.527344 409.5625 C 1383.296875 411.300781 1385.796875 412.082031 1388.535156 411.503906 C 1388.535156 411.503906 1388.699219 411.464844 1388.886719 411.402344 C 1389.691406 411.464844 1389.691406 411.441406 1389.980469 411.402344 C 1391.035156 411.957031 1392.203125 412.246094 1393.417969 412.246094 C 1393.707031 412.246094 1394.761719 412.148438 1394.988281 412.082031 L 1395.894531 411.917969 C 1397.5625 413.078125 1399.75 413.496094 1401.910156 413.054688 C 1404.09375 415.601562 1407.761719 416.496094 1411.0625 414.921875 L 1412.292969 414.304688 C 1412.707031 414.402344 1413.160156 414.441406 1413.574219 414.441406 C 1413.839844 414.441406 1414.792969 414.339844 1415.019531 414.277344 C 1417.078125 413.886719 1419.101562 413.472656 1421.136719 413.054688 C 1422.605469 413.144531 1424.0625 413.242188 1425.179688 413.308594 C 1425.40625 413.371094 1425.667969 413.40625 1425.894531 413.433594 C 1430.0625 413.886719 1434.246094 414.214844 1438.429688 414.339844 C 1439.167969 414.53125 1439.910156 414.757812 1440.675781 414.960938 C 1441.003906 416.082031 1441.605469 417.152344 1442.382812 418.050781 C 1444.796875 420.898438 1448.8125 421.566406 1452.117188 419.636719 L 1453.574219 418.769531 C 1456.074219 419.539062 1458.621094 418.996094 1460.480469 417.46875 C 1462.4375 418.339844 1464.398438 419.183594 1466.394531 419.953125 C 1468.515625 420.761719 1470.703125 420.671875 1472.535156 419.699219 C 1473.050781 419.890625 1473.566406 420.054688 1474.117188 420.179688 C 1474.785156 420.382812 1475.460938 420.46875 1476.164062 420.46875 L 1476.203125 420.507812 C 1477.007812 420.960938 1477.808594 421.441406 1478.640625 421.859375 C 1481.378906 423.21875 1484.492188 422.890625 1486.675781 421.1875 C 1487.167969 423.472656 1488.257812 425.703125 1490.859375 426.058594 C 1491.058594 426.386719 1491.308594 426.386719 1491.636719 426.160156 C 1491.636719 426.160156 1491.636719 426.160156 1491.664062 426.160156 C 1493.46875 426.160156 1494.75 425.125 1495.59375 424.480469 C 1495.820312 424.277344 1496.03125 424.089844 1496.132812 423.988281 C 1497.453125 423.636719 1498.730469 423.183594 1500.027344 422.765625 L 1501.734375 422.1875 C 1503.980469 422.3125 1506.191406 422.375 1508.453125 422.375 C 1509.054688 423.761719 1509.960938 425.351562 1511.628906 426.058594 C 1511.628906 426.09375 1511.667969 426.160156 1511.792969 426.324219 C 1512.308594 426.992188 1512.984375 427.960938 1513.976562 428.644531 C 1515.835938 430.835938 1519.441406 431.996094 1522.78125 431 C 1524.101562 430.585938 1525.292969 429.902344 1526.359375 429.222656 C 1527.667969 430.773438 1529.601562 431.683594 1531.886719 431.808594 C 1532.199219 432.425781 1532.625 433.03125 1533.078125 433.550781 C 1534.546875 435.164062 1536.933594 436.007812 1538.792969 435.96875 C 1538.992188 436.488281 1539.246094 437.003906 1539.570312 437.457031 C 1541.820312 440.941406 1546.316406 442.035156 1549.957031 439.90625 C 1550.535156 439.589844 1551.113281 439.238281 1551.691406 438.882812 C 1552.746094 439.84375 1554.101562 440.523438 1555.671875 440.789062 C 1557.792969 441.167969 1559.914062 441.496094 1562.039062 441.824219 C 1563.003906 444.394531 1565.253906 446.238281 1568.242188 446.628906 L 1568.855469 446.691406 C 1570.136719 448.785156 1572.359375 450.109375 1575.023438 450.246094 C 1576.40625 452.53125 1578.980469 454.054688 1582.355469 453.929688 C 1583.738281 453.789062 1585.09375 453.664062 1586.476562 453.539062 C 1586.601562 454.535156 1586.929688 455.542969 1587.40625 456.4375 C 1589.050781 459.503906 1592.417969 461.03125 1595.855469 460.25 L 1598.910156 459.542969 C 1599.109375 460.640625 1599.523438 461.699219 1600.140625 462.667969 C 1601.910156 465.355469 1605.085938 466.578125 1608.339844 465.808594 C 1609.847656 465.445312 1611.328125 465.089844 1612.835938 464.675781 C 1613.765625 465.773438 1615.058594 466.578125 1616.527344 466.996094 L 1617.179688 467.160156 C 1617.394531 468.359375 1617.882812 469.480469 1618.585938 470.425781 C 1619.554688 471.710938 1620.875 472.644531 1622.417969 473.101562 C 1622.480469 473.742188 1622.644531 474.398438 1622.871094 475.003906 C 1623.738281 477.335938 1625.507812 479.078125 1627.65625 479.820312 C 1628.683594 481.726562 1630.417969 483.074219 1632.515625 483.59375 C 1632.539062 484.148438 1632.664062 484.726562 1632.828125 485.269531 C 1633.03125 485.953125 1633.316406 486.570312 1633.667969 487.175781 C 1633.667969 487.175781 1633.667969 487.175781 1633.667969 487.210938 C 1633.667969 487.226562 1633.667969 487.25 1633.667969 487.261719 C 1633.695312 487.515625 1633.71875 487.765625 1633.769531 488.019531 C 1633.78125 488.160156 1633.820312 488.285156 1633.84375 488.410156 C 1633.894531 488.613281 1633.921875 488.828125 1633.972656 489.027344 C 1633.558594 490.089844 1633.382812 491.222656 1633.382812 492.34375 C 1633.382812 492.382812 1633.382812 492.410156 1633.382812 492.445312 C 1633.382812 492.445312 1633.382812 492.445312 1633.382812 492.457031 C 1633.394531 493.0625 1633.46875 493.65625 1633.605469 494.25 C 1633.621094 494.339844 1633.632812 494.425781 1633.644531 494.503906 C 1633.757812 494.917969 1633.933594 495.296875 1634.109375 495.6875 C 1634.210938 495.914062 1634.246094 496.167969 1634.375 496.382812 C 1634.472656 496.808594 1634.625 497.214844 1634.8125 497.605469 C 1635.175781 498.449219 1635.691406 499.195312 1636.34375 499.863281 C 1636.40625 499.914062 1636.457031 499.988281 1636.519531 500.039062 C 1636.933594 500.441406 1637.398438 500.820312 1637.914062 501.136719 C 1637.941406 501.160156 1637.976562 501.171875 1638.003906 501.1875 C 1637.652344 501.386719 1637.363281 501.679688 1637.074219 501.894531 C 1637.058594 501.90625 1637.046875 501.917969 1637.035156 501.929688 C 1636.621094 502.269531 1636.230469 502.636719 1635.894531 503.054688 C 1635.878906 503.054688 1635.878906 503.066406 1635.878906 503.078125 C 1634.875 504.289062 1634.261719 505.765625 1634.097656 507.390625 C 1634.085938 507.46875 1634.058594 507.542969 1634.058594 507.617188 C 1634.058594 507.808594 1633.996094 507.972656 1633.996094 508.160156 C 1632.964844 510.457031 1632.902344 513.105469 1633.933594 515.300781 C 1634.222656 515.917969 1634.574219 516.460938 1634.988281 516.976562 C 1634.976562 517 1634.964844 517.027344 1634.949219 517.050781 C 1634.550781 517.707031 1634.246094 518.4375 1634.046875 519.195312 C 1633.945312 519.511719 1633.933594 519.863281 1633.882812 520.191406 C 1633.832031 520.546875 1633.734375 520.875 1633.71875 521.25 C 1633.316406 523.8125 1634.132812 526.207031 1635.917969 527.898438 C 1635.363281 528.25 1634.902344 528.691406 1634.472656 529.171875 C 1634.121094 529.550781 1633.832031 529.953125 1633.558594 530.394531 C 1633.558594 530.394531 1633.542969 530.40625 1633.542969 530.40625 C 1633.292969 530.785156 1633.03125 531.152344 1632.867188 531.542969 C 1632.855469 531.566406 1632.839844 531.59375 1632.828125 531.617188 L 1631.234375 532.601562 C 1631.03125 532.742188 1630.871094 532.867188 1630.71875 532.992188 C 1630.707031 532.992188 1630.707031 533.007812 1630.707031 533.007812 C 1630.277344 533.308594 1629.902344 533.636719 1629.5625 534.003906 C 1629.550781 534.015625 1629.539062 534.015625 1629.527344 534.027344 C 1629.300781 534.253906 1629.074219 534.480469 1628.886719 534.734375 C 1627.917969 534.480469 1626.988281 534.21875 1626.023438 533.964844 C 1621.300781 532.640625 1616.601562 535.769531 1615.699219 540.523438 C 1615.675781 540.675781 1615.6875 540.800781 1615.660156 540.953125 C 1615.609375 541.355469 1615.546875 541.757812 1615.5625 542.136719 C 1615.546875 542.148438 1615.535156 542.148438 1615.535156 542.164062 C 1615.535156 542.175781 1615.546875 542.1875 1615.546875 542.199219 C 1615.5625 542.476562 1615.609375 542.742188 1615.636719 543.007812 C 1615.660156 543.257812 1615.648438 543.5 1615.699219 543.75 C 1615.609375 543.8125 1615.472656 543.878906 1615.347656 543.941406 L 1612.972656 543.902344 C 1611.429688 543.902344 1609.984375 544.332031 1608.730469 545.074219 C 1608.113281 545.441406 1607.550781 545.90625 1607.046875 546.449219 C 1606.542969 546.992188 1606.117188 547.609375 1605.753906 548.292969 C 1605.714844 548.367188 1605.703125 548.46875 1605.664062 548.554688 C 1605.339844 549.148438 1605.125 549.816406 1604.960938 550.460938 C 1603.667969 550.070312 1602.351562 550.03125 1601.09375 550.296875 C 1600.101562 550.484375 1599.148438 550.890625 1598.292969 551.445312 C 1598.179688 551.507812 1598.078125 551.570312 1597.980469 551.644531 C 1597.164062 552.226562 1596.433594 552.957031 1595.84375 553.828125 C 1595.820312 553.851562 1595.792969 553.890625 1595.769531 553.917969 C 1595.769531 553.941406 1595.757812 553.953125 1595.757812 553.96875 C 1595.40625 554.507812 1595.140625 555.089844 1594.929688 555.683594 C 1594.914062 555.695312 1594.914062 555.707031 1594.902344 555.734375 C 1594.863281 555.820312 1594.828125 555.933594 1594.800781 556.035156 C 1594.765625 556.125 1594.726562 556.199219 1594.703125 556.273438 C 1594.464844 556.351562 1594.226562 556.464844 1593.984375 556.566406 C 1593.648438 556.703125 1593.320312 556.867188 1592.992188 557.042969 C 1592.769531 557.183594 1592.53125 557.308594 1592.304688 557.472656 C 1591.75 557.875 1591.273438 558.367188 1590.847656 558.898438 C 1590.695312 559.085938 1590.53125 559.265625 1590.394531 559.464844 C 1590.304688 559.605469 1590.242188 559.769531 1590.15625 559.917969 C 1590.019531 560.160156 1589.878906 560.398438 1589.753906 560.636719 C 1589.742188 560.664062 1589.730469 560.703125 1589.714844 560.738281 C 1589.617188 560.941406 1589.527344 561.167969 1589.453125 561.382812 C 1589.289062 561.8125 1589.136719 562.253906 1589.050781 562.71875 C 1588.511719 562.933594 1588.007812 563.199219 1587.53125 563.5 C 1587.15625 563.730469 1586.804688 563.980469 1586.476562 564.285156 C 1586.125 564.347656 1585.796875 564.410156 1585.445312 564.535156 C 1585.460938 564.546875 1585.472656 564.546875 1585.472656 564.5625 C 1584.53125 564.8125 1583.625 565.179688 1582.796875 565.773438 C 1581.714844 566.539062 1580.574219 567.234375 1579.066406 568.15625 L 1577.460938 568.671875 C 1576.667969 568.910156 1575.941406 569.265625 1575.285156 569.707031 C 1574.421875 569.152344 1573.566406 568.585938 1572.710938 568.003906 C 1569.371094 565.757812 1564.890625 566.414062 1562.226562 569.113281 C 1558.648438 568.863281 1555.382812 571.195312 1554.089844 574.613281 C 1553.914062 575.078125 1553.789062 575.546875 1553.699219 576.011719 C 1552.894531 576.101562 1552.105469 576.289062 1551.351562 576.605469 L 1550.972656 576.492188 C 1547.796875 575.484375 1544.40625 576.453125 1542.273438 578.976562 C 1541.667969 579.707031 1541.191406 580.515625 1540.851562 581.371094 C 1538.867188 581.625 1537.136719 582.558594 1535.867188 584.019531 L 1535.089844 584.085938 C 1533.46875 584.210938 1531.988281 584.777344 1530.769531 585.710938 L 1529.398438 585.6875 C 1527.140625 585.6875 1525.066406 586.554688 1523.558594 588.15625 C 1522.980469 588.761719 1522.503906 589.445312 1522.140625 590.199219 C 1521.011719 589.972656 1519.878906 589.734375 1518.75 589.496094 C 1517.367188 589.203125 1515.988281 589.253906 1514.71875 589.621094 C 1511.328125 587.980469 1507.359375 588.953125 1505 591.613281 C 1502.851562 591.4375 1500.917969 592.15625 1499.246094 593.566406 C 1498.042969 594.589844 1496.761719 595.546875 1495.480469 596.46875 C 1494.800781 596.621094 1494.148438 596.859375 1493.546875 597.164062 C 1492.339844 596.355469 1491.148438 595.523438 1489.953125 594.679688 C 1486.3125 592.117188 1481.265625 593.214844 1478.714844 596.46875 C 1475.953125 596.101562 1473.1875 597.238281 1471.40625 599.46875 C 1470.941406 600.050781 1470.550781 600.695312 1470.25 601.363281 C 1468.542969 601.210938 1466.847656 601.046875 1465.140625 600.859375 C 1464.988281 600.832031 1464.296875 600.792969 1464.132812 600.792969 C 1461.863281 600.792969 1459.765625 601.753906 1458.257812 603.394531 L 1457.140625 603.480469 C 1456.183594 603.542969 1455.28125 603.785156 1454.390625 604.175781 L 1452.582031 604.175781 L 1450.394531 602.761719 C 1446.90625 600.304688 1442.082031 601.160156 1439.34375 604.441406 C 1439.03125 604.804688 1438.753906 605.535156 1438.515625 605.941406 C 1435.261719 605.664062 1432.476562 610.621094 1430.894531 610.621094 C 1430.878906 610.621094 1430.878906 610.621094 1430.867188 610.621094 C 1428.65625 610.621094 1426.433594 611.148438 1424.1875 611.601562 C 1421.550781 609.507812 1418.097656 608.285156 1414.644531 610.390625 L 1414.164062 610.242188 C 1410.699219 609.132812 1407.109375 610.457031 1405.085938 613.242188 C 1404.484375 613.355469 1403.867188 613.53125 1403.289062 613.785156 L 1400.578125 613.078125 C 1397.890625 612.359375 1395.253906 612.964844 1393.292969 614.605469 C 1391.472656 614.515625 1389.640625 614.984375 1388.070312 616.082031 C 1387.769531 616.292969 1387.453125 616.484375 1387.152344 616.671875 C 1385.609375 616.585938 1384.0625 616.898438 1382.644531 617.683594 C 1382.445312 617.796875 1382.230469 617.898438 1382.003906 617.996094 C 1379.871094 617.390625 1377.621094 617.695312 1375.625 618.878906 C 1373.980469 619.863281 1372.285156 620.757812 1370.5625 621.605469 C 1368.203125 620.34375 1365.378906 620.332031 1362.902344 621.640625 C 1362.578125 621.832031 1362.238281 621.984375 1361.898438 622.132812 L 1359.625 621.882812 C 1359.449219 621.871094 1358.734375 621.820312 1358.570312 621.820312 C 1356.9375 621.820312 1355.40625 622.296875 1354.101562 623.195312 C 1352.59375 623.054688 1350.960938 623.40625 1349.515625 624.226562 C 1347.507812 625.351562 1345.421875 626.347656 1343.324219 627.292969 C 1340.472656 627.785156 1337.386719 628.175781 1333.71875 628.492188 C 1332.5 627.886719 1331.246094 627.28125 1330.027344 626.660156 C 1326.257812 624.71875 1321.625 626.144531 1319.402344 629.398438 L 1317.769531 628.441406 C 1314.90625 626.511719 1310.875 626.648438 1308.210938 628.539062 C 1304.921875 627.46875 1298.515625 628.742188 1298.515625 631.582031 L 1298.515625 631.492188 C 1298.515625 631.46875 1298.378906 631.441406 1298.230469 631.441406 C 1296.660156 631.441406 1295.816406 631.882812 1294.550781 632.691406 C 1293.015625 631.945312 1291.484375 631.175781 1289.953125 630.382812 C 1287.605469 629.183594 1284.917969 629.183594 1282.644531 630.332031 C 1279.96875 629.183594 1276.765625 629.574219 1274.355469 631.480469 C 1272.859375 632.664062 1271.304688 633.773438 1269.734375 634.835938 C 1268.113281 634.683594 1266.496094 634.507812 1264.886719 634.28125 C 1262.800781 632.855469 1260.203125 632.488281 1257.753906 633.269531 L 1256.132812 632.511719 C 1252.339844 630.699219 1247.933594 632.136719 1245.75 635.351562 C 1243.574219 632.5625 1239.644531 631.152344 1236.054688 632.652344 C 1233.542969 631.566406 1230.652344 631.894531 1228.441406 633.371094 C 1225.792969 632.414062 1222.804688 632.890625 1220.53125 634.734375 C 1218.9375 636.007812 1217.304688 637.191406 1215.609375 638.339844 C 1213.523438 637.355469 1211.464844 636.335938 1209.417969 635.277344 C 1207.054688 634.039062 1204.355469 634.050781 1202.109375 635.164062 C 1199.671875 634.050781 1196.972656 634.078125 1194.308594 635.765625 C 1192.199219 635.289062 1189.925781 635.691406 1188.03125 636.941406 C 1186.121094 638.1875 1184.148438 639.300781 1182.152344 640.359375 C 1180.394531 639.285156 1178.664062 638.1875 1176.929688 637.054688 C 1173.914062 635.074219 1169.972656 635.414062 1167.285156 637.597656 C 1165.3125 637.207031 1163.203125 637.648438 1161.597656 638.65625 C 1160.441406 639.183594 1159.835938 640.132812 1159.484375 640.875 C 1159.085938 641.214844 1158.707031 641.746094 1158.355469 642.074219 C 1158.179688 642.261719 1158.015625 642.90625 1157.839844 642.90625 L 1156.9375 642.90625 C 1156.472656 642.90625 1155.667969 642.589844 1154.765625 642.816406 C 1153.984375 642.375 1153.21875 641.582031 1152.441406 641.113281 C 1151.386719 640.460938 1150.332031 639.816406 1149.289062 639.234375 C 1146.511719 637.683594 1143.25 637.835938 1140.800781 639.414062 C 1138.199219 638.554688 1135.425781 639.046875 1133.363281 640.636719 C 1130.992188 639.992188 1128.519531 640.433594 1126.609375 641.769531 L 1125.804688 641.644531 C 1125.566406 641.605469 1124.648438 641.519531 1124.410156 641.519531 C 1123.820312 641.519531 1123.230469 641.582031 1122.664062 641.71875 L 1120.832031 641.066406 C 1118.269531 640.105469 1115.496094 640.496094 1113.386719 641.996094 C 1112.230469 641.871094 1111.097656 642.011719 1109.402344 642.628906 C 1109.203125 642.667969 1108.335938 642.929688 1108.148438 642.992188 C 1107.070312 643.359375 1105.976562 643.738281 1104.882812 644.054688 C 1102.863281 642.125 1099.949219 641.417969 1097.109375 642.199219 C 1096.253906 642.4375 1095.390625 642.90625 1094.523438 642.90625 L 1094.296875 642.90625 C 1093.78125 642.90625 1093.242188 642.84375 1092.726562 642.84375 C 1092.5625 642.84375 1091.910156 642.90625 1091.746094 642.90625 C 1091.746094 642.90625 1091.734375 642.90625 1091.734375 642.90625 C 1089.375 642.90625 1085.355469 639.046875 1081.953125 640.6875 C 1080.632812 641.316406 1079.289062 641.707031 1077.832031 642.273438 L 1077.707031 642.289062 C 1075.722656 640.597656 1073.046875 639.941406 1070.386719 640.660156 C 1068.339844 641.191406 1066.28125 641.59375 1064.382812 641.871094 C 1062.460938 640.207031 1059.863281 639.550781 1057.289062 640.105469 C 1056.070312 640.382812 1054.839844 640.558594 1053.597656 640.75 L 1053.332031 640.785156 L 1051.773438 640.558594 C 1051.535156 640.523438 1050.769531 640.472656 1050.429688 640.460938 C 1048.609375 639.097656 1046.300781 638.578125 1043.914062 639.058594 C 1041.425781 636.8125 1037.773438 636.234375 1034.683594 637.796875 C 1033.679688 638.316406 1032.648438 638.792969 1031.632812 639.25 C 1031.417969 638.90625 1031.179688 638.578125 1030.929688 638.277344 C 1028.480469 635.300781 1024.597656 634.117188 1020.769531 636.070312 C 1018.671875 635.375 1016.398438 635.566406 1014.375 636.636719 C 1012.71875 637.507812 1011.035156 638.289062 1009.316406 639.019531 C 1008.160156 638.378906 1006.839844 638.039062 1005.449219 638.023438 L 1004.417969 637.484375 C 1002.269531 634.933594 999.054688 633.6875 995.578125 634.820312 C 992.851562 632.90625 989.085938 632.816406 986.207031 634.808594 C 985.480469 635.324219 984.738281 635.816406 983.984375 636.296875 C 981.839844 634.078125 979.074219 632.867188 975.082031 634.328125 L 974.980469 634.28125 C 972.984375 633.070312 970.648438 632.777344 968.539062 633.421875 C 965.964844 631.832031 962.625 631.78125 959.9375 633.421875 C 959.121094 633.9375 958.277344 634.417969 957.449219 634.882812 C 957.335938 634.757812 957.222656 634.621094 957.113281 634.492188 C 954.523438 631.628906 950.328125 630.886719 946.925781 632.792969 C 946.324219 633.132812 945.707031 633.421875 945.082031 633.722656 C 944.125 633.484375 943.171875 633.410156 942.253906 633.535156 C 940.246094 632.300781 937.785156 631.984375 935.421875 632.777344 C 935.046875 632.90625 934.667969 632.992188 934.292969 633.09375 L 932.949219 632.578125 C 930.4375 631.582031 927.726562 631.894531 925.589844 633.28125 C 924.160156 632.476562 922.738281 631.628906 921.320312 630.773438 C 920.027344 629.992188 918.632812 629.585938 917.175781 629.585938 C 914.703125 626.496094 909.96875 625.414062 906.4375 627.542969 C 905.398438 627.214844 904.316406 627.101562 903.238281 627.191406 C 901.164062 625.363281 898.503906 624.519531 895.414062 625.515625 C 893.214844 624.191406 890.492188 624 888.054688 625.058594 C 886.132812 625.878906 884.1875 626.597656 882.214844 627.253906 C 881.007812 626.761719 879.816406 626.257812 878.636719 625.726562 C 878.359375 624.65625 877.84375 623.621094 877.128906 622.6875 C 874.339844 619.121094 869.015625 618.351562 865.472656 621.125 L 865.011719 621.453125 C 864.785156 621.453125 864.546875 621.464844 864.34375 621.476562 C 861.90625 618.464844 857.4375 617.355469 853.871094 619.335938 C 853.332031 619.625 852.777344 619.890625 852.226562 620.140625 C 852.125 619.699219 851.988281 619.257812 851.796875 618.816406 C 849.714844 613.910156 842.945312 612.042969 838.777344 615.550781 C 838.472656 615.789062 838.171875 616.03125 837.871094 616.257812 C 836.425781 614.945312 834.554688 614.203125 832.496094 614.203125 C 832.394531 614.203125 832.121094 614.214844 831.855469 614.226562 C 829.820312 612.03125 826.695312 611.074219 823.707031 611.867188 C 822.5625 612.171875 821.421875 612.4375 820.277344 612.675781 C 820.0625 612.195312 819.800781 611.742188 819.5 611.300781 C 817.691406 608.742188 815.039062 607.351562 811.726562 607.78125 C 810.054688 606.140625 807.769531 605.246094 805.371094 605.449219 C 805.21875 605.234375 805.070312 605.03125 804.90625 604.832031 C 802.847656 602.332031 799.457031 601.148438 796.46875 601.929688 C 793.917969 600.492188 790.640625 600.53125 788.054688 602.195312 C 787.753906 602.382812 787.449219 602.574219 787.148438 602.75 C 787.136719 602.738281 787.125 602.722656 787.125 602.699219 C 785.328125 597.679688 778.671875 595.410156 774.300781 598.664062 C 773.8125 599.015625 773.308594 599.34375 772.808594 599.660156 C 772.367188 599.609375 771.980469 599.597656 771.023438 599.710938 C 770.019531 599.710938 769.015625 599.683594 768.0625 599.660156 C 767.996094 598.964844 767.835938 598.261719 767.582031 597.566406 C 766.191406 593.894531 762.195312 591.511719 758.429688 592.128906 C 756.984375 590.957031 755.1875 590.25 753.292969 590.214844 C 751.835938 588.535156 749.738281 587.425781 747.476562 587.289062 C 745.457031 585.015625 742.253906 583.882812 739.277344 584.625 C 737.769531 584.019531 736.125 583.882812 734.429688 584.261719 C 733.765625 584.410156 733.074219 584.539062 732.382812 584.652344 C 732.382812 584.488281 732.320312 584.324219 732.308594 584.171875 C 752.011719 572.859375 776.199219 563.589844 804.804688 556.464844 C 808.285156 544.230469 810.28125 531.441406 810.59375 518.753906 C 810.65625 516.558594 810.695312 514.339844 810.695312 512.132812 C 810.722656 507.328125 810.632812 502.585938 810.40625 497.832031 C 810.34375 496.480469 810.242188 495.09375 810.144531 493.734375 C 809.953125 490.566406 809.703125 487.4375 809.339844 484.335938 C 809.25 483.277344 809.113281 482.207031 808.988281 481.171875 C 808.511719 477.007812 807.894531 472.910156 807.128906 468.835938 C 806.867188 467.488281 806.613281 466.125 806.324219 464.800781 C 805.773438 462.128906 805.171875 459.453125 804.453125 456.832031 C 804.140625 455.507812 803.777344 454.183594 803.398438 452.894531 C 803.335938 452.667969 803.273438 452.441406 803.199219 452.214844 C 802.53125 449.894531 801.792969 447.597656 800.988281 445.304688 C 800.988281 445.238281 800.988281 445.214844 800.949219 445.175781 C 798.539062 438.140625 795.589844 431.328125 792.046875 424.835938 C 790.566406 422.097656 788.957031 419.410156 787.261719 416.761719 C 778.445312 403.140625 766.71875 390.996094 751.347656 381.058594 C 738.648438 372.824219 724.570312 365.230469 710.519531 359.65625 C 639.113281 331.265625 554.082031 351.421875 506.761719 404.984375 C 471.398438 445.011719 456.582031 513.949219 471.011719 567.386719 C 479.726562 599.671875 504.214844 631.113281 531.125 649.90625 C 558.714844 669.175781 592.308594 682.128906 626.167969 681.863281 C 635.007812 681.800781 644.488281 681.121094 653.871094 679.734375 C 650.941406 672.316406 648.21875 664.722656 645.644531 656.980469 C 629.09375 606.9375 628.414062 566.425781 643.671875 533.726562 C 644.035156 533.9375 644.402344 534.128906 644.777344 534.28125 C 645.304688 534.519531 645.84375 534.707031 646.421875 534.796875 C 646.082031 535.453125 645.882812 536.171875 645.730469 536.914062 C 645.65625 537.332031 645.570312 537.75 645.542969 538.191406 C 645.53125 538.757812 645.570312 539.324219 645.667969 539.890625 C 645.933594 541.480469 646.660156 542.996094 647.703125 544.191406 C 647.742188 544.242188 647.777344 544.304688 647.816406 544.355469 C 647.828125 544.394531 647.855469 544.433594 647.867188 544.46875 C 647.878906 544.535156 647.902344 544.582031 647.917969 544.648438 C 636.953125 574.121094 638.761719 610.253906 653.390625 654.394531 C 656.09375 662.554688 658.980469 670.5625 662.132812 678.382812 C 669.492188 676.957031 676.664062 675.117188 683.316406 672.757812 C 687.625 671.207031 691.933594 669.566406 696.140625 667.828125 C 688.894531 642.402344 691.507812 617.519531 713.320312 597.566406 C 713.484375 598.03125 713.632812 598.511719 713.886719 598.941406 C 715.164062 601.136719 717.351562 602.445312 719.914062 602.597656 C 720.074219 603.242188 720.300781 603.859375 720.617188 604.476562 C 721.972656 607.136719 724.523438 608.804688 727.320312 608.855469 C 728.765625 611.046875 731.289062 612.4375 733.890625 612.371094 C 735.710938 614.527344 738.636719 615.589844 741.375 614.933594 C 743.683594 616.800781 746.964844 617.140625 749.777344 615.625 C 750.917969 615.019531 752.050781 614.402344 753.167969 613.785156 C 754.285156 614.605469 755.652344 615.132812 757.183594 615.285156 L 758.066406 615.363281 C 758.265625 616.292969 758.628906 617.203125 759.15625 618.035156 C 761.34375 621.605469 765.800781 622.816406 769.503906 620.757812 C 770.09375 620.429688 770.683594 620.105469 771.261719 619.777344 C 771.351562 619.953125 771.414062 620.117188 771.5 620.28125 C 773.085938 623.457031 776.449219 625.171875 779.726562 624.566406 C 781.925781 627.152344 785.691406 628.164062 788.90625 626.574219 C 790.175781 626.914062 791.558594 626.902344 792.863281 626.5625 C 794.484375 627.683594 796.441406 628.164062 798.753906 627.707031 C 800.296875 627.40625 801.84375 627.101562 803.386719 626.761719 C 803.625 627.242188 803.925781 627.683594 804.265625 628.085938 C 805.699219 629.816406 807.746094 630.761719 810.054688 630.761719 C 810.230469 630.761719 811.023438 630.710938 811.199219 630.683594 L 812.65625 630.46875 C 813.808594 631.125 815.152344 631.46875 816.625 631.46875 C 816.625 631.46875 817.050781 631.453125 817.414062 631.441406 C 818.683594 631.730469 819.925781 631.707031 821.054688 631.390625 C 821.34375 631.480469 821.644531 631.566406 821.808594 631.59375 C 822.285156 631.679688 822.777344 631.757812 823.253906 631.832031 C 823.367188 632.792969 823.65625 633.75 824.121094 634.671875 C 826.203125 638.859375 831.355469 640.433594 835.324219 637.898438 C 835.738281 637.632812 836.164062 637.355469 836.578125 637.089844 C 836.792969 637.484375 837.042969 637.859375 837.320312 638.214844 C 839.378906 640.886719 842.933594 641.859375 846.183594 640.574219 L 848.007812 639.828125 C 848.570312 639.917969 849.238281 639.953125 850.027344 639.941406 L 850.253906 639.917969 C 850.582031 640.597656 850.996094 641.226562 851.484375 641.796875 C 853.945312 644.644531 857.914062 645.300781 861.230469 643.347656 C 863.039062 642.289062 864.832031 641.203125 866.605469 640.105469 C 867.484375 640.484375 868.363281 640.863281 869.242188 641.242188 C 870.785156 644.632812 874.453125 646.511719 878.207031 645.542969 C 880.167969 647.167969 882.894531 647.699219 885.503906 646.816406 C 886.875 646.363281 888.230469 645.871094 889.585938 645.390625 C 889.898438 646.199219 890.351562 646.953125 890.90625 647.636719 C 893.164062 650.371094 896.945312 651.179688 900.234375 649.578125 C 902.28125 648.554688 904.316406 647.535156 906.339844 646.460938 C 908.738281 647.914062 911.4375 649.464844 914.3125 650.863281 C 915.820312 651.582031 917.425781 651.835938 918.933594 651.570312 C 920.402344 652.363281 922.023438 652.679688 924.046875 652.289062 L 925.980469 651.886719 C 926.644531 652.226562 927.324219 652.566406 928.015625 652.871094 C 929.445312 653.5 930.925781 653.703125 932.359375 653.460938 C 934.382812 654.8125 936.992188 655.089844 939.441406 654.105469 L 942.140625 652.96875 C 942.492188 653.082031 942.832031 653.183594 943.183594 653.273438 C 943.675781 653.398438 944.175781 653.472656 944.667969 653.5 C 946.851562 655.730469 950.265625 656.414062 953.292969 655.050781 L 954.851562 654.332031 C 955.277344 654.421875 955.742188 654.472656 956.195312 654.472656 C 956.472656 654.472656 957.511719 654.40625 957.789062 654.34375 L 958.542969 654.242188 C 960.453125 655.71875 962.964844 656.335938 965.523438 655.53125 C 967.171875 655 968.804688 654.75 970.421875 654.195312 C 970.625 654.519531 970.835938 655.417969 971.0625 655.730469 C 973.363281 658.757812 977.40625 659.050781 980.785156 659.050781 L 980.808594 659.050781 C 982.238281 659.050781 983.859375 658.542969 985.417969 658.117188 C 986.863281 658.027344 988.242188 656.363281 989.398438 655.453125 C 990.367188 655.078125 991.332031 654.683594 992.285156 654.28125 C 993.855469 654.355469 995.425781 654.40625 996.996094 654.433594 C 998.765625 657.496094 1002.421875 659.035156 1006 657.890625 C 1008.296875 659.804688 1011.613281 660.195312 1014.488281 658.683594 C 1015.671875 658.050781 1016.851562 657.410156 1018.03125 656.765625 C 1019.988281 659.011719 1023.21875 659.933594 1026.34375 658.820312 L 1028.894531 657.875 C 1029.207031 657.914062 1029.535156 657.9375 1029.847656 657.9375 C 1030.011719 657.9375 1030.726562 657.890625 1030.878906 657.863281 C 1033.453125 657.546875 1036 657.195312 1038.539062 656.765625 C 1039.933594 657.8125 1041.515625 658.34375 1044.015625 658.367188 L 1048.347656 657.914062 L 1049.023438 658.039062 C 1049.964844 658.214844 1050.910156 658.394531 1051.863281 658.519531 C 1052.101562 658.542969 1052.867188 658.59375 1053.105469 658.582031 C 1054.1875 659.164062 1055.417969 659.464844 1056.710938 659.464844 C 1056.875 659.464844 1057.613281 659.414062 1057.789062 659.402344 C 1059.738281 659.148438 1061.683594 658.886719 1063.367188 658.632812 C 1063.855469 660.914062 1065 663.121094 1067.648438 663.488281 C 1067.863281 663.855469 1068.113281 663.828125 1068.414062 663.5625 C 1070.160156 663.5625 1071.414062 662.59375 1072.320312 661.925781 C 1072.582031 661.734375 1072.972656 661.394531 1073.097656 661.332031 C 1074.53125 660.863281 1075.949219 660.234375 1077.355469 659.71875 L 1078.574219 659.050781 L 1078.914062 659.050781 C 1080.207031 659.050781 1081.828125 660.890625 1083.585938 660.890625 C 1083.773438 660.890625 1084.601562 661.054688 1084.789062 661.027344 C 1087.164062 660.6875 1089.523438 660.308594 1091.519531 659.933594 C 1093.28125 661.976562 1096.054688 662.921875 1098.941406 662.277344 L 1100.527344 661.898438 C 1102.257812 662.859375 1104.367188 663.070312 1106.390625 662.46875 C 1109.429688 661.546875 1112.441406 660.574219 1115.417969 659.515625 C 1118.785156 659.96875 1122.664062 660.421875 1126.796875 660.539062 C 1127.109375 660.539062 1127.414062 660.523438 1127.703125 660.472656 L 1127.964844 660.5625 C 1129.121094 660.902344 1130.277344 661.242188 1131.46875 661.519531 C 1134.09375 662.125 1136.617188 661.40625 1138.386719 659.730469 C 1138.929688 659.78125 1139.542969 659.816406 1140.273438 659.855469 C 1141.011719 659.855469 1141.730469 659.753906 1142.40625 659.554688 L 1142.53125 659.578125 C 1143.574219 659.804688 1144.628906 660.019531 1145.699219 660.171875 C 1145.886719 660.195312 1146.664062 660.257812 1146.863281 660.257812 C 1147.316406 660.257812 1147.757812 660.222656 1148.195312 660.144531 C 1149.375 660.714844 1150.707031 660.964844 1152.152344 660.839844 C 1153.507812 661.042969 1154.828125 660.878906 1156.019531 660.398438 C 1156.246094 660.5 1156.472656 660.601562 1156.710938 660.6875 C 1159.648438 661.863281 1162.8125 661.230469 1164.949219 659.085938 C 1165.550781 658.457031 1166.066406 657.75 1166.457031 656.96875 C 1168.089844 656.890625 1169.734375 656.792969 1171.367188 656.652344 C 1171.929688 656.804688 1172.472656 656.941406 1173.035156 657.082031 C 1175.207031 659.453125 1178.535156 660.246094 1181.75 658.835938 C 1182.089844 659.011719 1182.417969 659.1875 1182.769531 659.351562 C 1185.457031 660.664062 1188.421875 660.359375 1190.59375 658.695312 C 1192.238281 659.050781 1193.996094 658.796875 1195.628906 657.964844 C 1198.089844 656.714844 1200.539062 655.429688 1202.9375 654.078125 C 1204.03125 654.308594 1205.136719 654.535156 1206.238281 654.734375 C 1208.539062 658.101562 1213.046875 659.25 1216.699219 656.992188 L 1217.101562 656.742188 C 1217.230469 656.792969 1217.355469 656.828125 1217.46875 656.878906 C 1219.425781 657.585938 1221.421875 657.546875 1223.132812 656.804688 C 1225.328125 657.761719 1227.914062 657.585938 1230.164062 656.199219 C 1232.3125 654.863281 1234.433594 653.5 1236.53125 652.101562 C 1238.714844 653.375 1240.9375 654.585938 1243.210938 655.695312 C 1247.242188 657.660156 1251.828125 655.769531 1253.597656 651.921875 L 1255.265625 651.746094 C 1256.109375 651.671875 1256.886719 651.507812 1257.617188 651.191406 C 1258.609375 651.59375 1259.613281 652.035156 1260.617188 652.429688 C 1263.054688 655.140625 1266.632812 656.238281 1270.5625 653.789062 C 1270.675781 653.738281 1271.453125 653.523438 1271.566406 653.460938 L 1273.804688 652.589844 L 1274.605469 652.589844 C 1276.089844 652.589844 1277.484375 651.808594 1278.6875 651.039062 C 1280.496094 650.699219 1282.292969 649.84375 1284.089844 649.4375 C 1285.117188 649.78125 1286.210938 650.257812 1287.515625 650.648438 C 1289.351562 652.300781 1291.886719 652.589844 1294.398438 652.589844 C 1294.421875 652.589844 1294.449219 652.589844 1294.472656 652.589844 C 1295.378906 652.589844 1296.269531 652.402344 1297.097656 652.085938 C 1297.425781 652.226562 1297.765625 652.339844 1298.117188 652.453125 C 1300.992188 653.5 1304.03125 653.347656 1306.066406 651.28125 C 1306.59375 650.75 1307.042969 651.128906 1307.410156 650.472656 C 1309.28125 650.5625 1311.136719 652.589844 1313.007812 652.589844 L 1313.035156 652.589844 C 1314.71875 652.589844 1316.402344 652.125 1318.132812 652.769531 C 1320.003906 653.472656 1321.9375 651.480469 1323.621094 650.8125 C 1323.632812 650.8125 1323.644531 650.824219 1323.671875 650.824219 C 1326.773438 652.378906 1330.316406 651.773438 1332.585938 649.335938 C 1333.140625 648.757812 1333.59375 648.101562 1333.945312 647.382812 C 1334.648438 647.421875 1335.386719 647.433594 1336.015625 647.34375 C 1336.730469 647.660156 1337.472656 647.976562 1338.226562 648.253906 C 1341.164062 649.300781 1344.242188 648.617188 1346.3125 646.476562 C 1346.917969 645.832031 1347.429688 645.101562 1347.808594 644.292969 C 1347.984375 644.230469 1348.171875 644.167969 1348.347656 644.105469 L 1350.632812 643.222656 C 1352.054688 643.523438 1353.558594 643.386719 1355.015625 642.832031 C 1357.152344 642.011719 1359.261719 641.179688 1361.347656 640.296875 C 1363.027344 641.949219 1365.476562 642.742188 1368.894531 642.136719 C 1369.070312 642.160156 1369.28125 642.160156 1369.472656 642.1875 C 1369.859375 642.589844 1370.25 642.917969 1370.640625 642.917969 C 1370.664062 642.917969 1370.703125 642.917969 1370.726562 642.917969 C 1370.914062 642.917969 1371.117188 642.617188 1371.316406 642.199219 C 1372.785156 641.984375 1373.804688 641.152344 1374.054688 640.6875 C 1374.71875 640.523438 1375.273438 640.257812 1375.699219 640.003906 C 1376.554688 639.855469 1377.296875 639.539062 1377.910156 639.183594 C 1379.492188 639.375 1381.101562 639.058594 1382.707031 638.238281 C 1384.742188 637.167969 1386.765625 636.019531 1389.085938 634.683594 C 1390.644531 635.238281 1392.390625 635.25 1394.085938 634.695312 C 1396.382812 633.953125 1398.65625 633.15625 1400.917969 632.324219 C 1403.277344 634.203125 1406.617188 634.507812 1409.480469 632.890625 L 1410.761719 632.136719 C 1411.492188 632.285156 1412.21875 632.425781 1412.949219 632.527344 C 1413.136719 632.550781 1413.953125 632.628906 1414.140625 632.628906 C 1416.210938 632.628906 1418.109375 631.84375 1419.503906 630.40625 C 1419.890625 630.003906 1420.21875 629.585938 1420.519531 629.109375 C 1422.253906 629.523438 1424 629.992188 1425.757812 630.304688 C 1425.996094 630.355469 1427.039062 630.597656 1427.277344 630.597656 C 1430.253906 630.597656 1432.703125 629.296875 1433.957031 626.789062 C 1437.472656 625.855469 1440.953125 625.449219 1444.417969 624.304688 C 1447.269531 624.808594 1450.183594 626.761719 1453.699219 626.761719 C 1453.824219 626.761719 1453.9375 626.761719 1454.0625 626.761719 C 1454.515625 626.761719 1454.992188 626.082031 1455.457031 626.332031 C 1458.984375 628.1875 1463.066406 625.941406 1465.289062 622.777344 C 1465.855469 621.984375 1466.269531 621.113281 1466.535156 620.179688 C 1466.949219 620.152344 1467.363281 620.128906 1467.765625 620.089844 C 1467.976562 620.066406 1468.179688 620.039062 1468.378906 620.003906 C 1470.527344 621.035156 1473.113281 620.9375 1475.375 619.675781 L 1478.113281 618.097656 C 1478.726562 618.125 1479.316406 618.1875 1480.320312 618.160156 C 1482.582031 618.125 1484.515625 617.242188 1485.871094 615.765625 C 1486.726562 615.992188 1487.605469 616.207031 1488.472656 616.421875 C 1489.476562 616.925781 1490.519531 617.175781 1491.4375 617.191406 C 1492.667969 617.457031 1493.910156 617.441406 1495.027344 617.164062 C 1495.039062 617.164062 1495.054688 617.175781 1495.078125 617.175781 C 1498.78125 619.121094 1503.128906 617.859375 1505.238281 614.316406 C 1505.828125 613.320312 1506.203125 612.234375 1506.378906 611.113281 C 1508.125 610.757812 1509.757812 610.390625 1511.113281 610 C 1513.464844 609.875 1515.800781 609.671875 1518.132812 609.382812 C 1519.71875 610.089844 1521.285156 610.785156 1522.917969 611.390625 C 1526.5625 612.738281 1530.355469 611.210938 1532.175781 608.160156 C 1532.402344 608.171875 1532.652344 608.199219 1532.941406 608.210938 C 1535.503906 608.210938 1537.777344 607.039062 1539.167969 604.980469 C 1539.746094 604.125 1540.148438 603.140625 1540.363281 602.105469 C 1542.308594 602.054688 1544.253906 601.941406 1546.203125 601.753906 C 1548.652344 601.527344 1550.683594 600.316406 1551.917969 598.460938 C 1552.367188 598.386719 1552.820312 598.308594 1553.261719 598.222656 C 1554.691406 597.917969 1555.960938 597.289062 1556.964844 596.367188 C 1557.742188 596.28125 1558.523438 596.191406 1559.300781 596.054688 C 1559.578125 596.003906 1559.839844 595.9375 1560.078125 595.875 C 1560.894531 596.078125 1561.710938 596.28125 1562.554688 596.429688 C 1562.792969 596.46875 1563.832031 596.570312 1564.074219 596.570312 C 1566.332031 596.570312 1568.355469 595.636719 1569.761719 593.933594 C 1570.1875 593.429688 1570.550781 592.847656 1570.828125 592.242188 C 1571.230469 592.457031 1571.632812 592.683594 1572.035156 592.886719 C 1575.25 594.488281 1578.878906 593.695312 1581.078125 591.234375 C 1584.644531 591.550781 1587.921875 589.367188 1589.089844 585.710938 C 1589.503906 584.449219 1589.617188 583.136719 1589.453125 581.902344 C 1591.953125 581.019531 1594.261719 580.125 1596.421875 579.203125 L 1595.078125 575.355469 L 1595.089844 575.355469 L 1597.3125 578.851562 L 1598.429688 578.394531 C 1598.53125 578.347656 1598.644531 578.28125 1598.757812 578.21875 C 1600.191406 577.625 1601.609375 577.019531 1603.015625 576.367188 C 1603.167969 576.328125 1603.316406 576.289062 1603.46875 576.253906 C 1603.46875 576.253906 1603.480469 576.265625 1603.480469 576.265625 C 1603.757812 576.1875 1604.03125 576.113281 1604.308594 576.039062 C 1605.640625 575.710938 1606.972656 575.355469 1608.289062 574.964844 C 1608.878906 574.800781 1609.46875 574.652344 1610.074219 574.460938 C 1610.523438 574.308594 1610.953125 574.121094 1611.355469 573.917969 C 1611.679688 573.753906 1611.96875 573.554688 1612.257812 573.339844 C 1612.296875 573.3125 1612.347656 573.300781 1612.382812 573.261719 C 1612.460938 573.199219 1612.558594 573.136719 1612.660156 573.074219 C 1612.710938 573.023438 1612.773438 573 1612.824219 572.949219 C 1612.875 572.949219 1612.9375 572.960938 1613 572.972656 C 1613.113281 573 1613.226562 573.011719 1613.3125 573.035156 C 1613.414062 573.035156 1613.515625 573.074219 1613.515625 573.074219 C 1613.550781 573.0625 1613.578125 573.0625 1613.613281 573.046875 C 1614.230469 573.023438 1614.820312 572.933594 1615.371094 572.808594 C 1615.460938 572.785156 1615.535156 572.769531 1615.609375 572.746094 C 1616.515625 572.519531 1617.332031 572.164062 1618.035156 571.636719 C 1618.25 571.496094 1618.449219 571.308594 1618.636719 571.117188 C 1618.714844 571.042969 1618.800781 570.992188 1618.875 570.917969 C 1618.964844 570.90625 1619.050781 570.867188 1619.140625 570.867188 C 1619.753906 570.804688 1620.34375 570.691406 1620.910156 570.515625 C 1621.136719 570.449219 1621.351562 570.363281 1621.5625 570.273438 C 1621.992188 570.097656 1622.394531 569.894531 1622.757812 569.65625 C 1622.957031 569.53125 1623.144531 569.417969 1623.320312 569.277344 C 1623.824219 568.875 1624.289062 568.421875 1624.664062 567.867188 C 1625.078125 567.222656 1625.40625 566.503906 1625.632812 565.671875 C 1625.921875 564.511719 1625.984375 563.1875 1625.820312 562.542969 C 1625.820312 562.53125 1625.808594 562.53125 1625.808594 562.53125 C 1625.796875 562.441406 1625.757812 562.441406 1625.71875 562.390625 C 1625.707031 562.378906 1625.695312 562.367188 1625.695312 562.355469 C 1625.65625 562.316406 1625.632812 562.203125 1625.59375 562.191406 L 1625.609375 562.191406 C 1627.027344 562.191406 1628.445312 561.003906 1629.878906 560.851562 C 1632.664062 560.550781 1634.914062 557.941406 1636.019531 555.53125 C 1636.371094 554.800781 1636.582031 554.003906 1636.683594 553.199219 C 1637.148438 553.273438 1637.601562 553.347656 1638.066406 553.425781 C 1638.152344 553.4375 1638.242188 553.449219 1638.328125 553.476562 C 1638.355469 553.476562 1638.441406 553.476562 1638.492188 553.488281 C 1638.804688 553.511719 1639.394531 553.550781 1639.558594 553.550781 C 1640.351562 553.550781 1641.105469 553.410156 1641.820312 553.199219 C 1641.832031 553.199219 1641.84375 553.183594 1641.859375 553.183594 C 1642.535156 552.96875 1643.175781 552.65625 1643.753906 552.265625 C 1643.804688 552.226562 1643.855469 552.203125 1643.890625 552.164062 C 1644.457031 551.761719 1644.960938 551.28125 1645.398438 550.726562 C 1645.425781 550.699219 1645.449219 550.664062 1645.472656 550.625 C 1645.976562 549.96875 1646.367188 549.238281 1646.640625 548.417969 C 1646.742188 548.152344 1646.84375 547.886719 1646.90625 547.597656 L 1647.007812 547.019531 C 1647.007812 546.980469 1647.007812 546.941406 1647.007812 546.90625 C 1647.234375 545.378906 1647.070312 543.839844 1646.53125 542.464844 C 1647.09375 542.035156 1647.597656 541.605469 1648.035156 541.214844 C 1648.199219 541.117188 1648.375 540.988281 1648.527344 540.863281 C 1648.625 540.789062 1648.726562 540.710938 1648.839844 540.636719 C 1648.890625 540.597656 1648.941406 540.5625 1649.003906 540.523438 C 1650.609375 539.425781 1652.242188 538.304688 1653.726562 537.105469 C 1653.789062 537.042969 1653.824219 537.003906 1653.886719 536.980469 C 1654.238281 536.75 1654.628906 536.550781 1654.980469 536.359375 C 1655.257812 536.410156 1655.519531 536.425781 1655.796875 536.449219 C 1656.136719 536.488281 1656.488281 536.5625 1656.828125 536.5625 C 1658.121094 536.5625 1659.324219 536.222656 1660.394531 535.628906 C 1660.40625 535.617188 1660.429688 535.605469 1660.445312 535.605469 C 1660.796875 535.402344 1661.109375 535.175781 1661.421875 534.921875 C 1661.4375 534.921875 1661.449219 534.910156 1661.460938 534.898438 C 1661.773438 534.644531 1662.0625 534.355469 1662.339844 534.054688 C 1662.339844 534.039062 1662.339844 534.039062 1662.339844 534.039062 C 1662.617188 533.726562 1662.867188 533.382812 1663.09375 533.03125 C 1663.09375 533.03125 1663.09375 533.03125 1663.09375 533.019531 C 1663.320312 532.679688 1663.507812 532.3125 1663.683594 531.921875 C 1663.695312 531.894531 1663.707031 531.859375 1663.722656 531.832031 C 1663.871094 531.480469 1663.996094 531.113281 1664.097656 530.734375 C 1664.109375 530.683594 1664.125 530.660156 1664.136719 530.621094 C 1664.210938 530.332031 1664.300781 530.066406 1664.335938 529.777344 L 1664.335938 529.765625 C 1664.363281 529.601562 1664.335938 529.449219 1664.347656 529.285156 C 1664.414062 528.769531 1664.425781 528.25 1664.398438 527.746094 C 1664.386719 527.507812 1664.335938 527.269531 1664.300781 527.015625 C 1664.238281 526.574219 1664.136719 526.132812 1663.996094 525.714844 C 1663.949219 525.527344 1663.886719 525.339844 1663.820312 525.160156 C 1663.597656 524.605469 1663.332031 524.078125 1662.992188 523.597656 C 1662.566406 522.980469 1662.0625 522.410156 1661.472656 521.933594 C 1663.660156 520.34375 1664.789062 517.921875 1664.601562 515.3125 C 1664.6875 515.085938 1664.75 514.894531 1664.8125 514.667969 C 1664.875 514.453125 1664.914062 514.238281 1664.941406 514.023438 C 1664.976562 513.847656 1665.027344 513.671875 1665.066406 513.484375 C 1665.066406 513.457031 1665.078125 513.433594 1665.078125 513.40625 C 1665.101562 513.054688 1665.101562 512.6875 1665.140625 512.335938 L 1665.140625 512.121094 C 1665.140625 512.007812 1665.152344 511.882812 1665.140625 511.769531 L 1665.140625 511.730469 C 1665.128906 511.578125 1665.089844 511.425781 1665.066406 511.289062 C 1665.027344 510.871094 1664.988281 510.46875 1664.890625 510.066406 C 1664.890625 510.050781 1664.890625 510.050781 1664.875 510.050781 C 1664.75 509.496094 1664.523438 508.917969 1664.273438 508.363281 C 1663.921875 507.695312 1663.53125 507.039062 1663.042969 506.496094 C 1663.117188 506.394531 1663.144531 506.308594 1663.207031 506.207031 C 1663.230469 506.167969 1663.246094 506.128906 1663.269531 506.078125 C 1663.28125 506.054688 1663.308594 506.027344 1663.320312 505.992188 C 1663.746094 505.359375 1664.023438 504.667969 1664.222656 503.949219 C 1664.238281 503.886719 1664.25 503.820312 1664.261719 503.773438 C 1664.386719 503.316406 1664.476562 502.851562 1664.511719 502.382812 C 1664.523438 502.121094 1664.5 501.867188 1664.5 501.601562 C 1664.488281 501.3125 1664.5 501.035156 1664.460938 500.746094 C 1664.375 500.152344 1664.238281 499.570312 1664.011719 499.003906 C 1663.820312 498.550781 1663.53125 498.160156 1663.308594 497.742188 C 1663.207031 497.578125 1663.09375 497.402344 1662.992188 497.226562 C 1662.929688 497.136719 1662.90625 497.023438 1662.828125 496.9375 C 1663.496094 496.34375 1664.023438 495.625 1664.4375 494.828125 C 1664.460938 494.792969 1664.488281 494.753906 1664.511719 494.703125 C 1664.714844 494.3125 1664.863281 493.898438 1664.988281 493.457031 C 1664.988281 493.429688 1665.003906 493.417969 1665.015625 493.390625 C 1665.039062 493.253906 1665.101562 493.164062 1665.140625 493.027344 C 1665.140625 493 1665.140625 492.976562 1665.152344 492.949219 C 1665.203125 492.699219 1665.203125 492.433594 1665.226562 492.167969 C 1665.265625 491.890625 1665.316406 491.613281 1665.328125 491.324219 C 1665.328125 491.324219 1665.328125 491.285156 1665.328125 491.25 C 1665.328125 491.234375 1665.328125 491.234375 1665.328125 491.234375 " fill-opacity="1" fill-rule="nonzero"/><path fill="#000000" d="M 528.726562 451.40625 C 548.621094 455.542969 567.757812 461.574219 585.703125 471.234375 C 590.324219 473.730469 586.21875 480.792969 581.585938 478.308594 C 564.242188 468.949219 545.769531 463.289062 526.554688 459.300781 C 521.40625 458.230469 523.589844 450.347656 528.726562 451.40625 Z M 546.761719 432.894531 C 551.949219 435.289062 556.367188 438.808594 560.585938 442.628906 C 564.492188 446.160156 558.714844 451.9375 554.824219 448.417969 C 551.09375 445.039062 547.238281 442.074219 542.652344 439.96875 C 537.882812 437.761719 542.027344 430.710938 546.761719 432.894531 Z M 602.972656 501.777344 C 614.964844 506.671875 626.769531 511.882812 638.585938 517.179688 L 566.804688 381.675781 C 536.652344 396.746094 508.984375 423.105469 494.621094 467.246094 C 494.445312 467.816406 494.34375 468.382812 494.15625 468.949219 C 519.171875 476.808594 545.882812 480.289062 570.773438 489.28125 C 581.648438 493.152344 592.359375 497.339844 602.972656 501.777344 " fill-opacity="1" fill-rule="nonzero"/><path fill="#000000" d="M 567.144531 531.050781 C 550.652344 531.492188 534.175781 530.484375 517.6875 530.824219 C 512.425781 530.925781 512.4375 522.753906 517.6875 522.640625 C 534.175781 522.296875 550.652344 523.320312 567.144531 522.867188 C 572.390625 522.726562 572.378906 530.914062 567.144531 531.050781 Z M 548.621094 552 C 543.671875 554.015625 538.734375 555.945312 533.5625 557.308594 C 528.476562 558.644531 526.316406 550.75 531.390625 549.425781 C 536.5625 548.066406 541.511719 546.136719 546.460938 544.117188 C 551.320312 542.125 553.429688 550.042969 548.621094 552 Z M 568.375 497.0625 C 543.496094 488.5625 516.933594 484.753906 492.007812 476.84375 C 483.089844 514.84375 490.125 557.484375 509.914062 591.523438 C 551.644531 567.964844 594.71875 545.71875 638.625 526.070312 C 615.554688 515.640625 592.308594 505.246094 568.375 497.0625 " fill-opacity="1" fill-rule="nonzero"/><path fill="#000000" d="M 581.585938 627.835938 C 578.847656 632.335938 571.800781 628.226562 574.539062 623.710938 C 584.359375 607.53125 595.324219 592.054688 603.699219 575.042969 C 606.023438 570.3125 613.042969 574.449219 610.730469 579.164062 C 602.34375 596.191406 591.390625 611.652344 581.585938 627.835938 Z M 567.65625 600.882812 C 566.515625 602.117188 565.359375 603.328125 564.214844 604.566406 C 560.636719 608.449219 554.898438 602.648438 558.464844 598.777344 C 559.59375 597.539062 560.761719 596.332031 561.894531 595.09375 C 565.472656 591.222656 571.222656 597.011719 567.65625 600.882812 Z M 514.222656 598.472656 C 520.289062 607.707031 527.308594 616.195312 535.296875 623.621094 C 551.582031 638.757812 570.21875 650.789062 590.113281 657.863281 C 603.988281 616.015625 622.5625 576.328125 638.160156 535.1875 C 595.902344 554.28125 554.445312 575.773438 514.222656 598.472656 " fill-opacity="1" fill-rule="nonzero"/><path fill="#000000" d="M 735.523438 450.4375 C 731.214844 454.183594 726.554688 457.410156 721.796875 460.539062 C 717.386719 463.453125 713.34375 456.375 717.675781 453.476562 C 721.859375 450.726562 725.976562 447.914062 729.734375 444.660156 C 733.6875 441.203125 739.476562 446.980469 735.523438 450.4375 Z M 687.8125 459.25 C 697.523438 445.859375 705.972656 431.621094 715.617188 418.148438 C 718.644531 413.925781 725.714844 417.984375 722.664062 422.285156 C 713.019531 435.71875 704.566406 449.980469 694.859375 463.351562 C 691.796875 467.574219 684.726562 463.515625 687.8125 459.25 Z M 692.699219 370.714844 C 684.597656 397.390625 671.738281 422.804688 664.859375 450.046875 C 659.421875 471.523438 655.085938 493.253906 651.070312 515.046875 C 652.738281 514.039062 654.445312 512.941406 656.078125 511.71875 C 658.71875 509.75 662.132812 509.773438 664.832031 511.164062 C 701.289062 489.34375 738.863281 469.164062 776.738281 450.472656 C 759.984375 414.796875 728.96875 384.867188 692.699219 370.714844 " fill-opacity="1" fill-rule="nonzero"/><path fill="#000000" d="M 766.253906 529.410156 C 747.0625 528.339844 727.8125 528.566406 708.75 525.828125 C 703.535156 525.109375 705.757812 517.203125 710.894531 517.949219 C 729.257812 520.558594 747.804688 520.203125 766.253906 521.214844 C 771.5 521.503906 771.527344 529.703125 766.253906 529.410156 Z M 749.890625 495.597656 C 751.570312 495.347656 753.203125 495.09375 754.875 494.828125 C 759.984375 494.085938 762.207031 501.96875 757.035156 502.710938 C 755.363281 502.964844 753.71875 503.230469 752.050781 503.480469 C 746.9375 504.261719 744.714844 496.34375 749.890625 495.597656 Z M 788.695312 489.632812 C 787.125 478.8125 784.136719 468.195312 779.992188 457.964844 C 742.59375 476.453125 705.433594 496.316406 669.429688 517.847656 C 669.515625 519.4375 669.140625 520.988281 668.261719 522.3125 C 671.351562 522.828125 674.023438 525.085938 675.015625 528.152344 C 675.082031 528.378906 675.144531 528.605469 675.179688 528.792969 C 712.113281 537.128906 749.285156 543.839844 785.804688 554.394531 C 791.242188 533.925781 791.910156 511.679688 788.695312 489.632812 " fill-opacity="1" fill-rule="nonzero"/><path fill="#000000" d="M 713.246094 597.566406 C 707.292969 602.988281 702.796875 608.804688 699.519531 614.871094 L 684.535156 586.59375 C 685.175781 586.683594 685.816406 586.746094 686.496094 586.683594 C 687.652344 587.589844 689.070312 588.105469 690.613281 588.171875 C 690.902344 588.75 691.292969 589.304688 691.707031 589.824219 C 693.214844 591.5625 695.460938 592.496094 697.523438 592.433594 C 698.902344 593.859375 700.800781 594.730469 702.859375 594.730469 C 704.65625 597.148438 707.808594 598.308594 710.996094 597.441406 C 711.660156 597.238281 712.339844 597.050781 713.019531 596.859375 C 713.082031 597.113281 713.144531 597.339844 713.246094 597.566406 " fill-opacity="1" fill-rule="nonzero"/><path fill="#000000" d="M 727.875 572.480469 C 725.753906 571.15625 723.71875 570.1875 721.308594 569.605469 C 716.171875 568.40625 718.355469 560.539062 723.464844 561.722656 C 726.554688 562.441406 729.320312 563.730469 731.980469 565.40625 C 736.425781 568.21875 732.34375 575.292969 727.875 572.480469 Z M 679.675781 538.125 C 680.644531 539.285156 681.285156 540.710938 681.484375 542.199219 C 681.511719 542.554688 681.546875 542.90625 681.546875 543.257812 C 683.03125 544.457031 684.121094 546.097656 684.597656 548.039062 C 684.863281 549.175781 684.886719 550.296875 684.660156 551.332031 C 686.53125 552.617188 687.851562 554.722656 688.226562 557.171875 C 690.703125 557.535156 692.738281 558.179688 694.308594 559.882812 C 696.390625 559.984375 698.386719 560.917969 699.871094 562.40625 C 702.507812 562.503906 704.957031 563.855469 706.488281 566.125 C 706.714844 566.414062 706.914062 566.730469 707.066406 567.082031 C 708.835938 567.246094 710.507812 568.027344 711.824219 569.253906 C 714.046875 569.253906 716.132812 570.160156 717.738281 571.800781 C 718.128906 572.214844 718.480469 572.671875 718.808594 573.164062 C 721.117188 573.351562 723.214844 574.613281 724.621094 576.417969 C 728 576.644531 730.925781 578.964844 731.980469 582.355469 C 732.183594 582.9375 732.308594 583.515625 732.34375 584.097656 C 746.875 575.734375 763.902344 568.546875 783.355469 562.503906 C 783.394531 562.40625 783.417969 562.304688 783.457031 562.214844 C 749.1875 552.300781 714.375 545.78125 679.675781 538.125 " fill-opacity="1" fill-rule="nonzero"/><path fill="#000000" d="M 645.632812 656.96875 C 641.675781 645 638.625 633.558594 636.5 622.652344 C 634.152344 624.820312 629.429688 623.875 629.59375 619.839844 C 629.71875 616.648438 630.132812 613.609375 631.328125 610.644531 C 631.878906 609.257812 632.933594 608.414062 634.128906 608.097656 C 632.320312 593.921875 632.230469 580.679688 633.839844 568.320312 C 621.429688 598.828125 608.308594 628.945312 597.898438 660.335938 C 617.273438 665.203125 634.066406 666.753906 648.757812 666.046875 C 647.691406 663.046875 646.636719 660.007812 645.632812 656.96875 Z M 659.683594 618.84375 C 656.59375 604.351562 653.214844 589.949219 649.007812 575.734375 C 647.503906 570.664062 655.375 568.546875 656.859375 573.578125 C 661.101562 587.78125 664.441406 602.183594 667.53125 616.671875 C 668.648438 621.820312 660.8125 624.011719 659.683594 618.84375 Z M 695.4375 624.429688 L 671.324219 578.902344 C 668.789062 578.230469 666.730469 576.253906 665.925781 573.453125 C 665.472656 571.902344 665.472656 570.3125 665.824219 568.898438 C 665.183594 568.507812 664.542969 568.117188 663.929688 567.738281 C 663.765625 567.636719 663.601562 567.539062 663.476562 567.4375 C 660.097656 567.121094 657.597656 565.054688 656.695312 562.050781 C 655.148438 560.625 654.160156 558.632812 653.996094 556.503906 C 652.488281 555.140625 651.484375 553.210938 651.257812 551.003906 C 651.195312 550.359375 651.195312 549.714844 651.257812 549.097656 C 649.6875 548.140625 648.46875 546.589844 647.917969 544.648438 C 636.914062 574.09375 638.75 610.253906 653.378906 654.394531 C 654.597656 658.101562 655.855469 661.746094 657.210938 665.367188 C 671.160156 663.878906 683.09375 660.335938 693.503906 655.933594 C 691.796875 645.085938 692.183594 634.46875 695.4375 624.429688 " fill-opacity="1" fill-rule="nonzero"/><path fill="#000000" d="M 875.546875 825.765625 C 816.835938 785.773438 746.648438 737.722656 719.046875 668.875 C 717.113281 664.054688 709.226562 666.164062 711.183594 671.054688 C 766.617188 809.28125 951.699219 833.484375 998.265625 976.074219 C 999.882812 981.066406 1007.757812 978.921875 1006.113281 973.902344 C 984 906.191406 932.257812 864.394531 875.546875 825.765625 " fill-opacity="1" fill-rule="nonzero"/><path fill="#000000" d="M 1164.132812 1106.125 C 1134.722656 1111.625 1095.476562 1099.921875 1064.09375 1076.222656 C 1036.453125 1055.339844 1019.171875 1028.464844 1016.6875 1002.46875 C 1016.460938 1000.210938 1014.425781 998.546875 1012.242188 998.789062 C 1009.992188 999 1008.347656 1000.996094 1008.5625 1003.253906 C 1011.273438 1031.527344 1029.722656 1060.511719 1059.195312 1082.757812 C 1087.089844 1103.832031 1119.890625 1115.699219 1148.546875 1115.699219 C 1154.449219 1115.699219 1160.164062 1115.195312 1165.628906 1114.160156 C 1167.835938 1113.746094 1169.292969 1111.613281 1168.878906 1109.394531 C 1168.476562 1107.160156 1166.304688 1105.710938 1164.132812 1106.125 " fill-opacity="1" fill-rule="nonzero"/><path fill="#000000" d="M 1553.472656 638.996094 C 1435.277344 702.433594 1304.882812 728.589844 1171.957031 735.023438 C 1107.882812 738.125 1042.015625 739.375 978.160156 732.652344 C 910.707031 725.550781 845.582031 703.039062 785.804688 671.394531 C 781.160156 668.9375 777.050781 676 781.699219 678.472656 C 838.648438 708.613281 900.085938 730.507812 964.09375 739.058594 C 1032.421875 748.175781 1103.226562 746.195312 1171.957031 743.207031 C 1306.066406 737.367188 1438.492188 709.976562 1557.59375 646.058594 C 1562.226562 643.574219 1558.105469 636.511719 1553.472656 638.996094 " fill-opacity="1" fill-rule="nonzero"/><path fill="#000000" d="M 658.828125 389.15625 C 651.257812 407.265625 645.355469 425.832031 643.21875 445.417969 C 642.65625 450.613281 634.503906 450.664062 635.070312 445.417969 C 637.292969 425.046875 643.082031 405.828125 650.96875 386.972656 C 652.976562 382.179688 660.863281 384.285156 658.828125 389.15625 Z M 625.738281 407.40625 C 625 401.652344 624.824219 396.128906 625.789062 390.402344 C 626.65625 385.207031 634.503906 387.414062 633.636719 392.574219 C 632.808594 397.515625 633.234375 402.472656 633.890625 407.40625 C 634.566406 412.625 626.40625 412.550781 625.738281 407.40625 Z M 683.40625 367.4375 C 664.996094 361.9375 617.902344 359.011719 574.164062 378.234375 L 643.875 509.738281 C 644.488281 505.992188 645.167969 502.320312 645.871094 498.589844 C 649.410156 479.542969 653.355469 460.527344 658.605469 441.949219 C 665.6875 416.800781 677.453125 392.863281 685.011719 368.066406 C 684.449219 367.878906 683.972656 367.625 683.40625 367.4375 " fill-opacity="1" fill-rule="nonzero"/></svg>