<svg xmlns="http://www.w3.org/2000/svg" xmlns:xlink="http://www.w3.org/1999/xlink" width="3000" zoomAndPan="magnify" viewBox="0 0 2250 2250.000011" height="3000" preserveAspectRatio="xMidYMid meet" version="1.0"><defs><clipPath id="8a6109aa09"><path d="M 0.5 0 L 2249.5 0 L 2249.5 2249 L 0.5 2249 Z M 0.5 0 " clip-rule="nonzero"/></clipPath><clipPath id="35a050aa6b"><path d="M 1125 0 C 503.957031 0 0.5 503.457031 0.5 1124.5 C 0.5 1745.542969 503.957031 2249 1125 2249 C 1746.042969 2249 2249.5 1745.542969 2249.5 1124.5 C 2249.5 503.457031 1746.042969 0 1125 0 " clip-rule="nonzero"/></clipPath><clipPath id="a60c4bf93a"><path d="M 0.5 0 L 2248.609375 0 L 2248.609375 2248.109375 L 0.5 2248.109375 Z M 0.5 0 " clip-rule="nonzero"/></clipPath><clipPath id="f575e75a94"><path d="M 1124.554688 0 C 503.757812 0 0.5 503.257812 0.5 1124.054688 C 0.5 1744.851562 503.757812 2248.109375 1124.554688 2248.109375 C 1745.351562 2248.109375 2248.609375 1744.851562 2248.609375 1124.054688 C 2248.609375 503.257812 1745.351562 0 1124.554688 0 " clip-rule="nonzero"/></clipPath></defs><g clip-path="url(#8a6109aa09)"><g clip-path="url(#35a050aa6b)"><path fill="#acadf4" d="M 0.5 0 L 2249.5 0 L 2249.5 2249 L 0.5 2249 Z M 0.5 0 " fill-opacity="1" fill-rule="nonzero"/></g></g><g clip-path="url(#a60c4bf93a)"><g clip-path="url(#f575e75a94)"><path stroke-linecap="butt" transform="matrix(13.786788, 0, 0, 13.786788, 0.499772, 0.0000999556)" fill="none" stroke-linejoin="miter" d="M 81.531314 -0.0000072501 C 36.502922 -0.0000072501 0.0000165101 36.502899 0.0000165101 81.53129 C 0.0000165101 126.559682 36.502922 163.062587 81.531314 163.062587 C 126.559705 163.062587 163.062611 126.559682 163.062611 81.53129 C 163.062611 36.502899 126.559705 -0.0000072501 81.531314 -0.0000072501 " stroke="#000000" stroke-width="0.434839" stroke-opacity="1" stroke-miterlimit="4"/></g></g><path fill="#000000" d="M 1719.886719 1474.203125 L 1668.125 907.335938 C 1659.289062 832.851562 1592.375 778.5625 1519.148438 787.398438 C 1453.5 794.976562 1403 850.523438 1400.476562 917.4375 L 1396.6875 995.714844 C 1303.261719 844.210938 1115.148438 536.160156 1112.625 533.636719 C 1093.6875 502.074219 1063.386719 480.609375 1028.035156 473.035156 C 992.683594 465.460938 957.335938 470.511719 927.035156 490.710938 C 900.523438 507.125 881.585938 532.375 871.484375 561.410156 L 837.398438 507.125 C 818.460938 475.5625 788.160156 454.097656 752.808594 446.523438 C 717.460938 438.949219 682.109375 444 651.808594 464.199219 C 589.945312 503.335938 571.007812 587.925781 608.882812 652.3125 L 627.820312 683.875 C 597.519531 680.085938 567.222656 686.398438 540.707031 702.8125 C 478.84375 741.949219 459.90625 826.539062 497.785156 890.925781 L 563.433594 998.238281 C 533.132812 994.449219 502.832031 1000.761719 476.320312 1017.175781 C 416.984375 1053.789062 398.046875 1137.113281 437.183594 1201.5 L 789.421875 1777.203125 C 886.636719 1936.28125 1068.4375 2056.21875 1259.074219 2056.21875 C 1331.035156 2056.21875 1403 2039.804688 1473.699219 2001.929688 C 1473.699219 2001.929688 1474.960938 2001.929688 1474.960938 2000.667969 L 1515.363281 1974.15625 C 1616.363281 1909.765625 1676.964844 1836.542969 1709.789062 1738.066406 C 1733.777344 1666.105469 1731.25 1599.191406 1724.9375 1532.277344 C 1722.414062 1500.714844 1719.886719 1474.203125 1719.886719 1474.203125 Z M 1663.074219 1721.652344 C 1634.039062 1808.765625 1579.75 1873.15625 1488.851562 1931.230469 L 1448.449219 1956.480469 C 1217.410156 2080.207031 953.546875 1948.90625 832.347656 1750.691406 L 480.109375 1174.988281 C 454.859375 1134.589844 467.484375 1081.5625 506.621094 1056.3125 C 545.757812 1032.324219 597.519531 1044.949219 621.507812 1084.089844 L 844.972656 1450.214844 C 852.546875 1461.578125 867.699219 1465.363281 879.058594 1459.050781 C 890.421875 1451.476562 894.210938 1436.328125 887.898438 1424.964844 L 544.496094 860.625 C 519.246094 820.226562 531.871094 767.199219 571.007812 741.949219 C 610.144531 716.699219 661.910156 730.585938 685.898438 769.726562 C 685.898438 769.726562 1029.296875 1331.539062 1029.296875 1332.800781 C 1036.875 1344.164062 1052.023438 1347.953125 1063.386719 1341.640625 C 1074.75 1334.066406 1078.535156 1318.914062 1072.222656 1306.289062 L 654.335938 622.011719 C 629.085938 581.609375 641.710938 528.585938 680.847656 503.335938 C 719.984375 478.085938 771.746094 491.972656 795.734375 531.109375 C 795.734375 531.109375 1213.625 1214.125 1213.625 1215.390625 C 1221.199219 1226.75 1236.347656 1230.539062 1247.710938 1224.226562 C 1259.074219 1216.652344 1262.863281 1201.5 1256.550781 1190.140625 C 1256.550781 1190.140625 928.296875 652.3125 928.296875 652.3125 C 903.046875 611.910156 915.671875 558.886719 954.808594 533.636719 C 973.746094 522.273438 995.210938 518.484375 1016.671875 523.535156 C 1039.398438 528.585938 1057.074219 542.472656 1069.699219 561.410156 C 1072.222656 566.460938 1346.1875 1010.863281 1396.6875 1092.925781 C 1403 1101.761719 1413.101562 1106.8125 1424.460938 1104.289062 C 1434.5625 1101.761719 1443.398438 1091.664062 1443.398438 1081.5625 L 1450.976562 919.960938 C 1452.238281 878.300781 1483.800781 842.949219 1524.199219 837.898438 C 1569.652344 832.851562 1611.3125 866.9375 1617.625 913.648438 C 1617.625 913.648438 1673.175781 1505.765625 1675.699219 1537.328125 C 1680.75 1600.453125 1684.539062 1658.527344 1663.074219 1721.652344 Z M 1663.074219 1721.652344 " fill-opacity="1" fill-rule="nonzero"/><path fill="#000000" d="M 525.558594 1830.230469 C 468.746094 1811.292969 419.507812 1749.429688 394.257812 1698.929688 C 363.957031 1639.589844 357.644531 1570.152344 377.84375 1508.289062 C 381.632812 1494.402344 375.320312 1480.515625 361.433594 1476.726562 C 347.546875 1472.941406 333.65625 1479.253906 329.871094 1493.140625 C 305.882812 1567.628906 313.457031 1650.953125 350.070312 1722.917969 C 365.21875 1751.953125 420.769531 1847.90625 510.410156 1878.203125 C 523.035156 1881.992188 538.183594 1875.679688 541.972656 1861.792969 C 545.757812 1849.167969 539.445312 1835.28125 525.558594 1830.230469 Z M 525.558594 1830.230469 " fill-opacity="1" fill-rule="nonzero"/><path fill="#000000" d="M 588.683594 1703.980469 C 559.644531 1693.878906 533.132812 1661.054688 519.246094 1634.539062 C 502.832031 1602.976562 500.308594 1566.367188 510.410156 1533.539062 C 514.195312 1519.652344 507.882812 1505.765625 493.996094 1501.976562 C 480.109375 1498.191406 466.222656 1504.503906 462.433594 1518.390625 C 447.28125 1563.839844 452.332031 1614.339844 473.796875 1657.265625 C 482.632812 1674.941406 516.722656 1733.015625 572.269531 1751.953125 C 584.894531 1755.742188 600.046875 1749.429688 603.832031 1735.542969 C 608.882812 1722.917969 602.570312 1709.027344 588.683594 1703.980469 Z M 588.683594 1703.980469 " fill-opacity="1" fill-rule="nonzero"/><path fill="#000000" d="M 1880.226562 701.550781 C 1862.550781 675.035156 1796.902344 586.660156 1704.738281 567.722656 C 1690.851562 565.199219 1678.226562 574.035156 1674.4375 587.925781 C 1671.914062 601.8125 1680.75 614.4375 1694.636719 618.222656 C 1752.714844 629.585938 1807 683.875 1837.300781 730.585938 C 1873.914062 784.875 1887.800781 853.050781 1876.4375 917.4375 C 1873.914062 931.324219 1882.75 943.949219 1896.640625 946.476562 L 1901.6875 946.476562 C 1913.050781 946.476562 1924.414062 937.636719 1926.941406 926.273438 C 1940.828125 848 1924.414062 765.9375 1880.226562 701.550781 Z M 1880.226562 701.550781 " fill-opacity="1" fill-rule="nonzero"/><path fill="#000000" d="M 1659.289062 699.023438 C 1645.402344 696.5 1632.777344 705.335938 1628.988281 719.222656 C 1626.464844 733.113281 1635.300781 745.738281 1649.1875 749.523438 C 1679.488281 755.835938 1707.261719 784.875 1723.675781 808.863281 C 1742.613281 837.898438 1750.1875 873.25 1745.136719 907.335938 C 1742.613281 921.226562 1751.453125 933.851562 1765.339844 936.375 C 1779.226562 938.902344 1791.851562 930.0625 1794.375 916.175781 C 1803.214844 869.460938 1793.113281 820.226562 1765.339844 779.824219 C 1755.238281 764.675781 1716.101562 710.386719 1659.289062 699.023438 Z M 1659.289062 699.023438 " fill-opacity="1" fill-rule="nonzero"/></svg>