<svg xmlns="http://www.w3.org/2000/svg" xmlns:xlink="http://www.w3.org/1999/xlink" width="3000" zoomAndPan="magnify" viewBox="0 0 2250 2250.000011" height="3000" preserveAspectRatio="xMidYMid meet" version="1.0"><defs><clipPath id="dfe6b2e3ff"><path d="M 0.5 0 L 2249.5 0 L 2249.5 2249 L 0.5 2249 Z M 0.5 0 " clip-rule="nonzero"/></clipPath><clipPath id="72987fa76d"><path d="M 1125 0 C 503.957031 0 0.5 503.457031 0.5 1124.5 C 0.5 1745.542969 503.957031 2249 1125 2249 C 1746.042969 2249 2249.5 1745.542969 2249.5 1124.5 C 2249.5 503.457031 1746.042969 0 1125 0 " clip-rule="nonzero"/></clipPath><clipPath id="8b4e2ceb3d"><path d="M 0.5 0 L 2248.609375 0 L 2248.609375 2248.109375 L 0.5 2248.109375 Z M 0.5 0 " clip-rule="nonzero"/></clipPath><clipPath id="b8aca3cf67"><path d="M 1124.554688 0 C 503.757812 0 0.5 503.257812 0.5 1124.054688 C 0.5 1744.851562 503.757812 2248.109375 1124.554688 2248.109375 C 1745.351562 2248.109375 2248.609375 1744.851562 2248.609375 1124.054688 C 2248.609375 503.257812 1745.351562 0 1124.554688 0 " clip-rule="nonzero"/></clipPath></defs><g clip-path="url(#dfe6b2e3ff)"><g clip-path="url(#72987fa76d)"><path fill="#acadf4" d="M 0.5 0 L 2249.5 0 L 2249.5 2249 L 0.5 2249 Z M 0.5 0 " fill-opacity="1" fill-rule="nonzero"/></g></g><g clip-path="url(#8b4e2ceb3d)"><g clip-path="url(#b8aca3cf67)"><path stroke-linecap="butt" transform="matrix(13.786788, 0, 0, 13.786788, 0.499772, 0.0000999556)" fill="none" stroke-linejoin="miter" d="M 81.531314 -0.0000072501 C 36.502922 -0.0000072501 0.0000165101 36.502899 0.0000165101 81.53129 C 0.0000165101 126.559682 36.502922 163.062587 81.531314 163.062587 C 126.559705 163.062587 163.062611 126.559682 163.062611 81.53129 C 163.062611 36.502899 126.559705 -0.0000072501 81.531314 -0.0000072501 " stroke="#000000" stroke-width="0.434839" stroke-opacity="1" stroke-miterlimit="4"/></g></g><path fill="#000000" d="M 1460.910156 485.773438 C 1392.070312 466.539062 1351.640625 394.648438 1370.824219 325.546875 C 1380.433594 290.929688 1360.265625 255.074219 1325.785156 245.433594 C 1291.300781 235.789062 1255.582031 256.03125 1245.976562 290.648438 L 1039.746094 1034.109375 C 1008.765625 1002.160156 969.3125 977.703125 923.5 964.90625 C 785.335938 926.285156 641.632812 1007.691406 603.160156 1146.382812 C 564.683594 1285.078125 645.804688 1429.304688 783.945312 1467.925781 C 922.109375 1506.546875 1065.785156 1425.140625 1104.257812 1286.449219 L 1310.617188 542.492188 C 1341.441406 574.160156 1380.636719 598.410156 1426.117188 611.101562 C 1494.953125 630.335938 1535.386719 702.230469 1516.199219 771.328125 C 1506.59375 805.945312 1526.757812 841.800781 1561.242188 851.445312 C 1595.726562 861.085938 1631.445312 840.84375 1641.050781 806.230469 C 1679.449219 668.027344 1598.609375 524.265625 1460.910156 485.773438 Z M 1460.910156 485.773438 " fill-opacity="1" fill-rule="nonzero"/><path fill="#000000" d="M 1481.152344 1089.40625 C 1438.195312 1100.34375 1394.390625 1074.15625 1383.496094 1031.035156 C 1378.035156 1009.449219 1356.171875 996.367188 1334.667969 1001.847656 C 1313.164062 1007.328125 1300.132812 1029.277344 1305.59375 1050.863281 L 1422.796875 1514.742188 C 1396.320312 1507.117188 1367.582031 1506.183594 1338.996094 1513.449219 C 1252.800781 1535.398438 1200.445312 1623.65625 1222.308594 1710.179688 C 1244.171875 1796.703125 1332.09375 1849.234375 1418.289062 1827.285156 C 1504.484375 1805.339844 1556.839844 1717.082031 1534.972656 1630.558594 L 1417.695312 1166.367188 C 1444.015625 1173.890625 1472.550781 1174.792969 1500.902344 1167.582031 C 1543.859375 1156.648438 1587.664062 1182.835938 1598.558594 1225.953125 C 1604.019531 1247.539062 1625.882812 1260.621094 1647.386719 1255.140625 C 1668.890625 1249.660156 1681.921875 1227.710938 1676.460938 1206.125 C 1654.671875 1119.886719 1567.0625 1067.535156 1481.152344 1089.40625 Z M 1481.152344 1089.40625 " fill-opacity="1" fill-rule="nonzero"/></svg>